G75*
%MOIN*%
%OFA0B0*%
%FSLAX24Y24*%
%IPPOS*%
%LPD*%
%AMOC8*
5,1,8,0,0,1.08239X$1,22.5*
%
%ADD10C,0.0000*%
%ADD11C,0.0100*%
%ADD12C,0.0030*%
%ADD13C,0.0040*%
%ADD14C,0.0070*%
%ADD15R,0.0300X0.0010*%
%ADD16R,0.0290X0.0010*%
%ADD17R,0.0310X0.0010*%
%ADD18R,0.0230X0.0010*%
%ADD19R,0.0140X0.0010*%
%ADD20R,0.0190X0.0010*%
%ADD21R,0.0110X0.0010*%
%ADD22R,0.0130X0.0010*%
%ADD23R,0.0080X0.0010*%
%ADD24R,0.0070X0.0010*%
%ADD25R,0.0090X0.0010*%
%ADD26R,0.0060X0.0010*%
%ADD27R,0.0250X0.0010*%
%ADD28R,0.0470X0.0010*%
%ADD29R,0.0050X0.0010*%
%ADD30R,0.0340X0.0010*%
%ADD31R,0.0550X0.0010*%
%ADD32R,0.0040X0.0010*%
%ADD33R,0.0400X0.0010*%
%ADD34R,0.0600X0.0010*%
%ADD35R,0.0030X0.0010*%
%ADD36R,0.0460X0.0010*%
%ADD37R,0.0640X0.0010*%
%ADD38R,0.0020X0.0010*%
%ADD39R,0.0010X0.0010*%
%ADD40R,0.0500X0.0010*%
%ADD41R,0.0660X0.0010*%
%ADD42R,0.0540X0.0010*%
%ADD43R,0.0680X0.0010*%
%ADD44R,0.0570X0.0010*%
%ADD45R,0.0710X0.0010*%
%ADD46R,0.0610X0.0010*%
%ADD47R,0.0720X0.0010*%
%ADD48R,0.0630X0.0010*%
%ADD49R,0.0740X0.0010*%
%ADD50R,0.0750X0.0010*%
%ADD51R,0.0690X0.0010*%
%ADD52R,0.0760X0.0010*%
%ADD53R,0.0700X0.0010*%
%ADD54R,0.0770X0.0010*%
%ADD55R,0.0730X0.0010*%
%ADD56R,0.0780X0.0010*%
%ADD57R,0.0280X0.0010*%
%ADD58R,0.0790X0.0010*%
%ADD59R,0.0270X0.0010*%
%ADD60R,0.0240X0.0010*%
%ADD61R,0.0150X0.0010*%
%ADD62R,0.0220X0.0010*%
%ADD63R,0.0210X0.0010*%
%ADD64R,0.0200X0.0010*%
%ADD65R,0.0180X0.0010*%
%ADD66R,0.0170X0.0010*%
%ADD67R,0.0160X0.0010*%
%ADD68R,0.0100X0.0010*%
%ADD69R,0.0330X0.0010*%
%ADD70R,0.0360X0.0010*%
%ADD71R,0.0390X0.0010*%
%ADD72R,0.0420X0.0010*%
%ADD73R,0.0450X0.0010*%
%ADD74R,0.0490X0.0010*%
%ADD75R,0.0510X0.0010*%
%ADD76R,0.0520X0.0010*%
%ADD77R,0.0440X0.0010*%
%ADD78R,0.0410X0.0010*%
%ADD79R,0.0380X0.0010*%
%ADD80R,0.0350X0.0010*%
%ADD81R,0.0320X0.0010*%
%ADD82R,0.0260X0.0010*%
%ADD83R,0.0800X0.0010*%
%ADD84R,0.0670X0.0010*%
%ADD85R,0.0650X0.0010*%
%ADD86R,0.0580X0.0010*%
%ADD87R,0.0560X0.0010*%
%ADD88R,0.0620X0.0010*%
%ADD89C,0.0060*%
%ADD90R,0.3600X0.0005*%
%ADD91R,0.0160X0.0005*%
%ADD92R,0.0005X0.0005*%
%ADD93R,0.0010X0.0005*%
%ADD94R,0.0155X0.0005*%
%ADD95R,0.0150X0.0005*%
%ADD96R,0.0095X0.0005*%
%ADD97R,0.0125X0.0005*%
%ADD98R,0.0205X0.0005*%
%ADD99R,0.0195X0.0005*%
%ADD100R,0.0250X0.0005*%
%ADD101R,0.0210X0.0005*%
%ADD102R,0.0280X0.0005*%
%ADD103R,0.0110X0.0005*%
%ADD104R,0.0120X0.0005*%
%ADD105R,0.0230X0.0005*%
%ADD106R,0.0305X0.0005*%
%ADD107R,0.0130X0.0005*%
%ADD108R,0.0255X0.0005*%
%ADD109R,0.0335X0.0005*%
%ADD110R,0.0275X0.0005*%
%ADD111R,0.0365X0.0005*%
%ADD112R,0.0295X0.0005*%
%ADD113R,0.0390X0.0005*%
%ADD114R,0.0135X0.0005*%
%ADD115R,0.0420X0.0005*%
%ADD116R,0.0325X0.0005*%
%ADD117R,0.0440X0.0005*%
%ADD118R,0.0460X0.0005*%
%ADD119R,0.0345X0.0005*%
%ADD120R,0.0140X0.0005*%
%ADD121R,0.0355X0.0005*%
%ADD122R,0.0465X0.0005*%
%ADD123R,0.0145X0.0005*%
%ADD124R,0.0475X0.0005*%
%ADD125R,0.0375X0.0005*%
%ADD126R,0.0480X0.0005*%
%ADD127R,0.0385X0.0005*%
%ADD128R,0.0485X0.0005*%
%ADD129R,0.0400X0.0005*%
%ADD130R,0.0490X0.0005*%
%ADD131R,0.0405X0.0005*%
%ADD132R,0.0495X0.0005*%
%ADD133R,0.0415X0.0005*%
%ADD134R,0.0500X0.0005*%
%ADD135R,0.0425X0.0005*%
%ADD136R,0.0505X0.0005*%
%ADD137R,0.0435X0.0005*%
%ADD138R,0.0510X0.0005*%
%ADD139R,0.0185X0.0005*%
%ADD140R,0.0190X0.0005*%
%ADD141R,0.0165X0.0005*%
%ADD142R,0.0170X0.0005*%
%ADD143R,0.0180X0.0005*%
%ADD144R,0.0175X0.0005*%
%ADD145R,0.0105X0.0005*%
%ADD146R,0.0090X0.0005*%
%ADD147R,0.0080X0.0005*%
%ADD148R,0.0070X0.0005*%
%ADD149R,0.0060X0.0005*%
%ADD150R,0.0050X0.0005*%
%ADD151R,0.0045X0.0005*%
%ADD152R,0.0035X0.0005*%
%ADD153R,0.0025X0.0005*%
%ADD154R,0.0015X0.0005*%
%ADD155R,0.0200X0.0005*%
%ADD156R,0.0215X0.0005*%
%ADD157R,0.0115X0.0005*%
%ADD158R,0.0100X0.0005*%
%ADD159R,0.0225X0.0005*%
%ADD160R,0.0240X0.0005*%
%ADD161R,0.0270X0.0005*%
%ADD162R,0.0290X0.0005*%
%ADD163R,0.0310X0.0005*%
%ADD164R,0.0560X0.0005*%
%ADD165R,0.0350X0.0005*%
%ADD166R,0.0360X0.0005*%
%ADD167R,0.0370X0.0005*%
%ADD168R,0.0380X0.0005*%
%ADD169R,0.0340X0.0005*%
%ADD170R,0.0285X0.0005*%
%ADD171R,0.0265X0.0005*%
%ADD172R,0.0020X0.0005*%
%ADD173R,0.0030X0.0005*%
%ADD174R,0.0040X0.0005*%
%ADD175R,0.0085X0.0005*%
%ADD176R,0.0455X0.0005*%
%ADD177R,0.0395X0.0005*%
%ADD178R,0.0445X0.0005*%
%ADD179R,0.0430X0.0005*%
%ADD180R,0.0410X0.0005*%
%ADD181R,0.0330X0.0005*%
%ADD182R,0.0245X0.0005*%
%ADD183R,0.0260X0.0005*%
%ADD184R,0.0220X0.0005*%
%ADD185R,0.2970X0.0005*%
D10*
X008260Y012393D02*
X029260Y012393D01*
X027630Y017893D02*
X027632Y017943D01*
X027638Y017993D01*
X027648Y018042D01*
X027662Y018090D01*
X027679Y018137D01*
X027700Y018182D01*
X027725Y018226D01*
X027753Y018267D01*
X027785Y018306D01*
X027819Y018343D01*
X027856Y018377D01*
X027896Y018407D01*
X027938Y018434D01*
X027982Y018458D01*
X028028Y018479D01*
X028075Y018495D01*
X028123Y018508D01*
X028173Y018517D01*
X028222Y018522D01*
X028273Y018523D01*
X028323Y018520D01*
X028372Y018513D01*
X028421Y018502D01*
X028469Y018487D01*
X028515Y018469D01*
X028560Y018447D01*
X028603Y018421D01*
X028644Y018392D01*
X028683Y018360D01*
X028719Y018325D01*
X028751Y018287D01*
X028781Y018247D01*
X028808Y018204D01*
X028831Y018160D01*
X028850Y018114D01*
X028866Y018066D01*
X028878Y018017D01*
X028886Y017968D01*
X028890Y017918D01*
X028890Y017868D01*
X028886Y017818D01*
X028878Y017769D01*
X028866Y017720D01*
X028850Y017672D01*
X028831Y017626D01*
X028808Y017582D01*
X028781Y017539D01*
X028751Y017499D01*
X028719Y017461D01*
X028683Y017426D01*
X028644Y017394D01*
X028603Y017365D01*
X028560Y017339D01*
X028515Y017317D01*
X028469Y017299D01*
X028421Y017284D01*
X028372Y017273D01*
X028323Y017266D01*
X028273Y017263D01*
X028222Y017264D01*
X028173Y017269D01*
X028123Y017278D01*
X028075Y017291D01*
X028028Y017307D01*
X027982Y017328D01*
X027938Y017352D01*
X027896Y017379D01*
X027856Y017409D01*
X027819Y017443D01*
X027785Y017480D01*
X027753Y017519D01*
X027725Y017560D01*
X027700Y017604D01*
X027679Y017649D01*
X027662Y017696D01*
X027648Y017744D01*
X027638Y017793D01*
X027632Y017843D01*
X027630Y017893D01*
X011852Y013093D02*
X011854Y013116D01*
X011860Y013139D01*
X011870Y013160D01*
X011883Y013180D01*
X011899Y013197D01*
X011918Y013211D01*
X011939Y013221D01*
X011961Y013228D01*
X011984Y013231D01*
X012008Y013230D01*
X012030Y013225D01*
X012052Y013216D01*
X012072Y013204D01*
X012090Y013188D01*
X012104Y013170D01*
X012116Y013150D01*
X012124Y013128D01*
X012128Y013105D01*
X012128Y013081D01*
X012124Y013058D01*
X012116Y013036D01*
X012104Y013016D01*
X012090Y012998D01*
X012072Y012982D01*
X012052Y012970D01*
X012030Y012961D01*
X012008Y012956D01*
X011984Y012955D01*
X011961Y012958D01*
X011939Y012965D01*
X011918Y012975D01*
X011899Y012989D01*
X011883Y013006D01*
X011870Y013026D01*
X011860Y013047D01*
X011854Y013070D01*
X011852Y013093D01*
X011852Y012893D02*
X011854Y012916D01*
X011860Y012939D01*
X011870Y012960D01*
X011883Y012980D01*
X011899Y012997D01*
X011918Y013011D01*
X011939Y013021D01*
X011961Y013028D01*
X011984Y013031D01*
X012008Y013030D01*
X012030Y013025D01*
X012052Y013016D01*
X012072Y013004D01*
X012090Y012988D01*
X012104Y012970D01*
X012116Y012950D01*
X012124Y012928D01*
X012128Y012905D01*
X012128Y012881D01*
X012124Y012858D01*
X012116Y012836D01*
X012104Y012816D01*
X012090Y012798D01*
X012072Y012782D01*
X012052Y012770D01*
X012030Y012761D01*
X012008Y012756D01*
X011984Y012755D01*
X011961Y012758D01*
X011939Y012765D01*
X011918Y012775D01*
X011899Y012789D01*
X011883Y012806D01*
X011870Y012826D01*
X011860Y012847D01*
X011854Y012870D01*
X011852Y012893D01*
X011502Y014053D02*
X011504Y014076D01*
X011510Y014099D01*
X011520Y014120D01*
X011533Y014140D01*
X011549Y014157D01*
X011568Y014171D01*
X011589Y014181D01*
X011611Y014188D01*
X011634Y014191D01*
X011658Y014190D01*
X011680Y014185D01*
X011702Y014176D01*
X011722Y014164D01*
X011740Y014148D01*
X011754Y014130D01*
X011766Y014110D01*
X011774Y014088D01*
X011778Y014065D01*
X011778Y014041D01*
X011774Y014018D01*
X011766Y013996D01*
X011754Y013976D01*
X011740Y013958D01*
X011722Y013942D01*
X011702Y013930D01*
X011680Y013921D01*
X011658Y013916D01*
X011634Y013915D01*
X011611Y013918D01*
X011589Y013925D01*
X011568Y013935D01*
X011549Y013949D01*
X011533Y013966D01*
X011520Y013986D01*
X011510Y014007D01*
X011504Y014030D01*
X011502Y014053D01*
X011402Y014053D02*
X011404Y014076D01*
X011410Y014099D01*
X011420Y014120D01*
X011433Y014140D01*
X011449Y014157D01*
X011468Y014171D01*
X011489Y014181D01*
X011511Y014188D01*
X011534Y014191D01*
X011558Y014190D01*
X011580Y014185D01*
X011602Y014176D01*
X011622Y014164D01*
X011640Y014148D01*
X011654Y014130D01*
X011666Y014110D01*
X011674Y014088D01*
X011678Y014065D01*
X011678Y014041D01*
X011674Y014018D01*
X011666Y013996D01*
X011654Y013976D01*
X011640Y013958D01*
X011622Y013942D01*
X011602Y013930D01*
X011580Y013921D01*
X011558Y013916D01*
X011534Y013915D01*
X011511Y013918D01*
X011489Y013925D01*
X011468Y013935D01*
X011449Y013949D01*
X011433Y013966D01*
X011420Y013986D01*
X011410Y014007D01*
X011404Y014030D01*
X011402Y014053D01*
X009542Y014053D02*
X009544Y014076D01*
X009550Y014099D01*
X009560Y014120D01*
X009573Y014140D01*
X009589Y014157D01*
X009608Y014171D01*
X009629Y014181D01*
X009651Y014188D01*
X009674Y014191D01*
X009698Y014190D01*
X009720Y014185D01*
X009742Y014176D01*
X009762Y014164D01*
X009780Y014148D01*
X009794Y014130D01*
X009806Y014110D01*
X009814Y014088D01*
X009818Y014065D01*
X009818Y014041D01*
X009814Y014018D01*
X009806Y013996D01*
X009794Y013976D01*
X009780Y013958D01*
X009762Y013942D01*
X009742Y013930D01*
X009720Y013921D01*
X009698Y013916D01*
X009674Y013915D01*
X009651Y013918D01*
X009629Y013925D01*
X009608Y013935D01*
X009589Y013949D01*
X009573Y013966D01*
X009560Y013986D01*
X009550Y014007D01*
X009544Y014030D01*
X009542Y014053D01*
X009442Y014053D02*
X009444Y014076D01*
X009450Y014099D01*
X009460Y014120D01*
X009473Y014140D01*
X009489Y014157D01*
X009508Y014171D01*
X009529Y014181D01*
X009551Y014188D01*
X009574Y014191D01*
X009598Y014190D01*
X009620Y014185D01*
X009642Y014176D01*
X009662Y014164D01*
X009680Y014148D01*
X009694Y014130D01*
X009706Y014110D01*
X009714Y014088D01*
X009718Y014065D01*
X009718Y014041D01*
X009714Y014018D01*
X009706Y013996D01*
X009694Y013976D01*
X009680Y013958D01*
X009662Y013942D01*
X009642Y013930D01*
X009620Y013921D01*
X009598Y013916D01*
X009574Y013915D01*
X009551Y013918D01*
X009529Y013925D01*
X009508Y013935D01*
X009489Y013949D01*
X009473Y013966D01*
X009460Y013986D01*
X009450Y014007D01*
X009444Y014030D01*
X009442Y014053D01*
X009092Y013093D02*
X009094Y013116D01*
X009100Y013139D01*
X009110Y013160D01*
X009123Y013180D01*
X009139Y013197D01*
X009158Y013211D01*
X009179Y013221D01*
X009201Y013228D01*
X009224Y013231D01*
X009248Y013230D01*
X009270Y013225D01*
X009292Y013216D01*
X009312Y013204D01*
X009330Y013188D01*
X009344Y013170D01*
X009356Y013150D01*
X009364Y013128D01*
X009368Y013105D01*
X009368Y013081D01*
X009364Y013058D01*
X009356Y013036D01*
X009344Y013016D01*
X009330Y012998D01*
X009312Y012982D01*
X009292Y012970D01*
X009270Y012961D01*
X009248Y012956D01*
X009224Y012955D01*
X009201Y012958D01*
X009179Y012965D01*
X009158Y012975D01*
X009139Y012989D01*
X009123Y013006D01*
X009110Y013026D01*
X009100Y013047D01*
X009094Y013070D01*
X009092Y013093D01*
X009092Y012893D02*
X009094Y012916D01*
X009100Y012939D01*
X009110Y012960D01*
X009123Y012980D01*
X009139Y012997D01*
X009158Y013011D01*
X009179Y013021D01*
X009201Y013028D01*
X009224Y013031D01*
X009248Y013030D01*
X009270Y013025D01*
X009292Y013016D01*
X009312Y013004D01*
X009330Y012988D01*
X009344Y012970D01*
X009356Y012950D01*
X009364Y012928D01*
X009368Y012905D01*
X009368Y012881D01*
X009364Y012858D01*
X009356Y012836D01*
X009344Y012816D01*
X009330Y012798D01*
X009312Y012782D01*
X009292Y012770D01*
X009270Y012761D01*
X009248Y012756D01*
X009224Y012755D01*
X009201Y012758D01*
X009179Y012765D01*
X009158Y012775D01*
X009139Y012789D01*
X009123Y012806D01*
X009110Y012826D01*
X009100Y012847D01*
X009094Y012870D01*
X009092Y012893D01*
X008630Y018393D02*
X008632Y018443D01*
X008638Y018493D01*
X008648Y018542D01*
X008662Y018590D01*
X008679Y018637D01*
X008700Y018682D01*
X008725Y018726D01*
X008753Y018767D01*
X008785Y018806D01*
X008819Y018843D01*
X008856Y018877D01*
X008896Y018907D01*
X008938Y018934D01*
X008982Y018958D01*
X009028Y018979D01*
X009075Y018995D01*
X009123Y019008D01*
X009173Y019017D01*
X009222Y019022D01*
X009273Y019023D01*
X009323Y019020D01*
X009372Y019013D01*
X009421Y019002D01*
X009469Y018987D01*
X009515Y018969D01*
X009560Y018947D01*
X009603Y018921D01*
X009644Y018892D01*
X009683Y018860D01*
X009719Y018825D01*
X009751Y018787D01*
X009781Y018747D01*
X009808Y018704D01*
X009831Y018660D01*
X009850Y018614D01*
X009866Y018566D01*
X009878Y018517D01*
X009886Y018468D01*
X009890Y018418D01*
X009890Y018368D01*
X009886Y018318D01*
X009878Y018269D01*
X009866Y018220D01*
X009850Y018172D01*
X009831Y018126D01*
X009808Y018082D01*
X009781Y018039D01*
X009751Y017999D01*
X009719Y017961D01*
X009683Y017926D01*
X009644Y017894D01*
X009603Y017865D01*
X009560Y017839D01*
X009515Y017817D01*
X009469Y017799D01*
X009421Y017784D01*
X009372Y017773D01*
X009323Y017766D01*
X009273Y017763D01*
X009222Y017764D01*
X009173Y017769D01*
X009123Y017778D01*
X009075Y017791D01*
X009028Y017807D01*
X008982Y017828D01*
X008938Y017852D01*
X008896Y017879D01*
X008856Y017909D01*
X008819Y017943D01*
X008785Y017980D01*
X008753Y018019D01*
X008725Y018060D01*
X008700Y018104D01*
X008679Y018149D01*
X008662Y018196D01*
X008648Y018244D01*
X008638Y018293D01*
X008632Y018343D01*
X008630Y018393D01*
X008760Y038393D02*
X013260Y038393D01*
X014260Y039393D01*
X027260Y039393D01*
X028260Y038393D02*
X029260Y038393D01*
X025630Y038393D02*
X025632Y038443D01*
X025638Y038493D01*
X025648Y038542D01*
X025662Y038590D01*
X025679Y038637D01*
X025700Y038682D01*
X025725Y038726D01*
X025753Y038767D01*
X025785Y038806D01*
X025819Y038843D01*
X025856Y038877D01*
X025896Y038907D01*
X025938Y038934D01*
X025982Y038958D01*
X026028Y038979D01*
X026075Y038995D01*
X026123Y039008D01*
X026173Y039017D01*
X026222Y039022D01*
X026273Y039023D01*
X026323Y039020D01*
X026372Y039013D01*
X026421Y039002D01*
X026469Y038987D01*
X026515Y038969D01*
X026560Y038947D01*
X026603Y038921D01*
X026644Y038892D01*
X026683Y038860D01*
X026719Y038825D01*
X026751Y038787D01*
X026781Y038747D01*
X026808Y038704D01*
X026831Y038660D01*
X026850Y038614D01*
X026866Y038566D01*
X026878Y038517D01*
X026886Y038468D01*
X026890Y038418D01*
X026890Y038368D01*
X026886Y038318D01*
X026878Y038269D01*
X026866Y038220D01*
X026850Y038172D01*
X026831Y038126D01*
X026808Y038082D01*
X026781Y038039D01*
X026751Y037999D01*
X026719Y037961D01*
X026683Y037926D01*
X026644Y037894D01*
X026603Y037865D01*
X026560Y037839D01*
X026515Y037817D01*
X026469Y037799D01*
X026421Y037784D01*
X026372Y037773D01*
X026323Y037766D01*
X026273Y037763D01*
X026222Y037764D01*
X026173Y037769D01*
X026123Y037778D01*
X026075Y037791D01*
X026028Y037807D01*
X025982Y037828D01*
X025938Y037852D01*
X025896Y037879D01*
X025856Y037909D01*
X025819Y037943D01*
X025785Y037980D01*
X025753Y038019D01*
X025725Y038060D01*
X025700Y038104D01*
X025679Y038149D01*
X025662Y038196D01*
X025648Y038244D01*
X025638Y038293D01*
X025632Y038343D01*
X025630Y038393D01*
X014630Y038393D02*
X014632Y038443D01*
X014638Y038493D01*
X014648Y038542D01*
X014662Y038590D01*
X014679Y038637D01*
X014700Y038682D01*
X014725Y038726D01*
X014753Y038767D01*
X014785Y038806D01*
X014819Y038843D01*
X014856Y038877D01*
X014896Y038907D01*
X014938Y038934D01*
X014982Y038958D01*
X015028Y038979D01*
X015075Y038995D01*
X015123Y039008D01*
X015173Y039017D01*
X015222Y039022D01*
X015273Y039023D01*
X015323Y039020D01*
X015372Y039013D01*
X015421Y039002D01*
X015469Y038987D01*
X015515Y038969D01*
X015560Y038947D01*
X015603Y038921D01*
X015644Y038892D01*
X015683Y038860D01*
X015719Y038825D01*
X015751Y038787D01*
X015781Y038747D01*
X015808Y038704D01*
X015831Y038660D01*
X015850Y038614D01*
X015866Y038566D01*
X015878Y038517D01*
X015886Y038468D01*
X015890Y038418D01*
X015890Y038368D01*
X015886Y038318D01*
X015878Y038269D01*
X015866Y038220D01*
X015850Y038172D01*
X015831Y038126D01*
X015808Y038082D01*
X015781Y038039D01*
X015751Y037999D01*
X015719Y037961D01*
X015683Y037926D01*
X015644Y037894D01*
X015603Y037865D01*
X015560Y037839D01*
X015515Y037817D01*
X015469Y037799D01*
X015421Y037784D01*
X015372Y037773D01*
X015323Y037766D01*
X015273Y037763D01*
X015222Y037764D01*
X015173Y037769D01*
X015123Y037778D01*
X015075Y037791D01*
X015028Y037807D01*
X014982Y037828D01*
X014938Y037852D01*
X014896Y037879D01*
X014856Y037909D01*
X014819Y037943D01*
X014785Y037980D01*
X014753Y038019D01*
X014725Y038060D01*
X014700Y038104D01*
X014679Y038149D01*
X014662Y038196D01*
X014648Y038244D01*
X014638Y038293D01*
X014632Y038343D01*
X014630Y038393D01*
D11*
X008260Y037793D02*
X008260Y012393D01*
X028866Y012393D01*
X028905Y012395D01*
X028943Y012401D01*
X028980Y012410D01*
X029017Y012423D01*
X029052Y012440D01*
X029085Y012459D01*
X029116Y012482D01*
X029145Y012508D01*
X029171Y012537D01*
X029194Y012568D01*
X029213Y012601D01*
X029230Y012636D01*
X029243Y012673D01*
X029252Y012710D01*
X029258Y012748D01*
X029260Y012787D01*
X029260Y038000D01*
X029258Y038039D01*
X029252Y038077D01*
X029243Y038114D01*
X029230Y038151D01*
X029213Y038186D01*
X029194Y038219D01*
X029171Y038250D01*
X029145Y038279D01*
X029116Y038305D01*
X029085Y038328D01*
X029052Y038347D01*
X029017Y038364D01*
X028980Y038377D01*
X028943Y038386D01*
X028905Y038392D01*
X028866Y038394D01*
X028866Y038393D02*
X028260Y038393D01*
X027260Y039393D01*
X014360Y039393D01*
X013360Y038393D01*
X008860Y038393D01*
X008260Y037793D01*
D12*
X018902Y018229D02*
X018902Y017858D01*
X019025Y017858D02*
X018778Y017858D01*
X019025Y018105D02*
X018902Y018229D01*
X019146Y018167D02*
X019393Y017920D01*
X019332Y017858D01*
X019208Y017858D01*
X019146Y017920D01*
X019146Y018167D01*
X019208Y018229D01*
X019332Y018229D01*
X019393Y018167D01*
X019393Y017920D01*
X019515Y017920D02*
X019576Y017858D01*
X019700Y017858D01*
X019762Y017920D01*
X019515Y018167D01*
X019515Y017920D01*
X019762Y017920D02*
X019762Y018167D01*
X019700Y018229D01*
X019576Y018229D01*
X019515Y018167D01*
X019884Y017920D02*
X019884Y017858D01*
X019946Y017858D01*
X019946Y017920D01*
X019884Y017920D01*
X020067Y017920D02*
X020129Y017858D01*
X020252Y017858D01*
X020314Y017920D01*
X020067Y018167D01*
X020067Y017920D01*
X020067Y018167D02*
X020129Y018229D01*
X020252Y018229D01*
X020314Y018167D01*
X020314Y017920D01*
X020436Y017982D02*
X020436Y018229D01*
X020682Y018229D02*
X020682Y017982D01*
X020559Y017858D01*
X020436Y017982D01*
X020344Y017629D02*
X020406Y017567D01*
X020344Y017629D02*
X020221Y017629D01*
X020159Y017567D01*
X020159Y017505D01*
X020406Y017258D01*
X020159Y017258D01*
X020038Y017258D02*
X019791Y017505D01*
X019791Y017567D01*
X019853Y017629D01*
X019976Y017629D01*
X020038Y017567D01*
X020038Y017258D02*
X019791Y017258D01*
X019670Y017258D02*
X019423Y017505D01*
X019423Y017567D01*
X019484Y017629D01*
X019608Y017629D01*
X019670Y017567D01*
X019670Y017258D02*
X019423Y017258D01*
X019301Y017258D02*
X019054Y017505D01*
X019054Y017567D01*
X019116Y017629D01*
X019239Y017629D01*
X019301Y017567D01*
X019301Y017258D02*
X019054Y017258D01*
X022084Y013805D02*
X022023Y013743D01*
X022023Y013558D01*
X022208Y013558D01*
X022270Y013620D01*
X022208Y013682D01*
X022023Y013682D01*
X022084Y013805D02*
X022208Y013805D01*
X022453Y013805D02*
X022453Y013558D01*
X022392Y013558D02*
X022515Y013558D01*
X022637Y013558D02*
X022637Y013743D01*
X022698Y013805D01*
X022760Y013743D01*
X022760Y013558D01*
X022883Y013558D02*
X022883Y013805D01*
X022822Y013805D01*
X022760Y013743D01*
X022515Y013805D02*
X022453Y013805D01*
X022453Y013929D02*
X022453Y013990D01*
X023067Y013990D02*
X023067Y013929D01*
X023067Y013805D02*
X023067Y013558D01*
X023129Y013558D02*
X023005Y013558D01*
X023067Y013805D02*
X023129Y013805D01*
X023251Y013805D02*
X023312Y013805D01*
X023436Y013682D01*
X023436Y013805D02*
X023436Y013558D01*
X023558Y013558D02*
X023620Y013620D01*
X023620Y013867D01*
X023681Y013805D02*
X023558Y013805D01*
X023803Y013805D02*
X023988Y013805D01*
X024050Y013743D01*
X023988Y013682D01*
X023865Y013682D01*
X023803Y013620D01*
X023865Y013558D01*
X024050Y013558D01*
X024171Y013682D02*
X024418Y013682D01*
X024418Y013743D02*
X024356Y013805D01*
X024233Y013805D01*
X024171Y013743D01*
X024171Y013682D01*
X024233Y013558D02*
X024356Y013558D01*
X024418Y013620D01*
X024418Y013743D01*
X024356Y013390D02*
X024356Y013329D01*
X024356Y013205D02*
X024356Y012958D01*
X024295Y012958D02*
X024418Y012958D01*
X024172Y012958D02*
X024172Y013205D01*
X024111Y013205D01*
X024049Y013143D01*
X023987Y013205D01*
X023926Y013143D01*
X023926Y012958D01*
X024049Y012958D02*
X024049Y013143D01*
X023804Y013143D02*
X023742Y013205D01*
X023619Y013205D01*
X023557Y013143D01*
X023557Y013020D01*
X023619Y012958D01*
X023742Y012958D01*
X023804Y013020D01*
X023804Y013143D01*
X024356Y013205D02*
X024418Y013205D01*
X024540Y013205D02*
X024602Y013205D01*
X024725Y013082D01*
X024846Y013082D02*
X025032Y013082D01*
X025093Y013020D01*
X025032Y012958D01*
X024846Y012958D01*
X024846Y013143D01*
X024908Y013205D01*
X025032Y013205D01*
X025215Y013205D02*
X025215Y012897D01*
X025276Y012835D01*
X025338Y012835D01*
X025400Y012958D02*
X025215Y012958D01*
X025400Y012958D02*
X025462Y013020D01*
X025462Y013143D01*
X025400Y013205D01*
X025215Y013205D01*
X025155Y013558D02*
X025155Y013805D01*
X024970Y013805D01*
X024908Y013743D01*
X024908Y013558D01*
X025276Y013682D02*
X025523Y013682D01*
X025523Y013743D02*
X025461Y013805D01*
X025338Y013805D01*
X025276Y013743D01*
X025276Y013682D01*
X025338Y013558D02*
X025461Y013558D01*
X025523Y013620D01*
X025523Y013743D01*
X026013Y013743D02*
X026013Y013620D01*
X026074Y013558D01*
X026198Y013558D01*
X026260Y013620D01*
X026260Y013743D01*
X026198Y013805D01*
X026074Y013805D01*
X026013Y013743D01*
X026381Y013805D02*
X026566Y013805D01*
X026628Y013743D01*
X026628Y013620D01*
X026566Y013558D01*
X026381Y013558D01*
X026381Y013929D01*
X026749Y013743D02*
X026749Y013558D01*
X026935Y013558D01*
X026996Y013620D01*
X026935Y013682D01*
X026749Y013682D01*
X026749Y013743D02*
X026811Y013805D01*
X026935Y013805D01*
X027118Y013743D02*
X027118Y013558D01*
X027118Y013743D02*
X027179Y013805D01*
X027365Y013805D01*
X027365Y013558D01*
X027486Y013682D02*
X027733Y013682D01*
X027733Y013743D02*
X027671Y013805D01*
X027548Y013805D01*
X027486Y013743D01*
X027486Y013682D01*
X027548Y013558D02*
X027671Y013558D01*
X027733Y013620D01*
X027733Y013743D01*
X027854Y013805D02*
X028039Y013805D01*
X028101Y013743D01*
X028039Y013682D01*
X027916Y013682D01*
X027854Y013620D01*
X027916Y013558D01*
X028101Y013558D01*
X028223Y013682D02*
X028469Y013682D01*
X028469Y013743D02*
X028408Y013805D01*
X028284Y013805D01*
X028223Y013743D01*
X028223Y013682D01*
X028284Y013558D02*
X028408Y013558D01*
X028469Y013620D01*
X028469Y013743D01*
X028591Y013620D02*
X028591Y013867D01*
X028653Y013929D01*
X028838Y013929D01*
X028838Y013558D01*
X028653Y013558D01*
X028591Y013620D01*
X027365Y013929D02*
X027303Y013990D01*
X027179Y013990D01*
X027118Y014052D01*
X027056Y013205D02*
X027241Y013205D01*
X027303Y013143D01*
X027303Y013020D01*
X027241Y012958D01*
X027056Y012958D01*
X026935Y013020D02*
X026873Y012958D01*
X026750Y012958D01*
X026688Y013020D01*
X026688Y013143D01*
X026750Y013205D01*
X026873Y013205D01*
X026935Y013143D01*
X026935Y013020D01*
X026567Y012958D02*
X026567Y013205D01*
X026381Y013205D01*
X026320Y013143D01*
X026320Y012958D01*
X025830Y013020D02*
X025768Y013082D01*
X025583Y013082D01*
X025583Y013143D02*
X025583Y012958D01*
X025768Y012958D01*
X025830Y013020D01*
X025768Y013205D02*
X025645Y013205D01*
X025583Y013143D01*
X024725Y013205D02*
X024725Y012958D01*
D13*
X012052Y014928D02*
X011792Y014928D01*
X011705Y015015D01*
X011705Y015102D01*
X011792Y015189D01*
X012052Y015189D01*
X012052Y015449D02*
X011792Y015449D01*
X011705Y015362D01*
X011705Y015275D01*
X011792Y015189D01*
X011536Y015015D02*
X011450Y015102D01*
X011190Y015102D01*
X011190Y015189D02*
X011190Y014928D01*
X011450Y014928D01*
X011536Y015015D01*
X011450Y015275D02*
X011276Y015275D01*
X011190Y015189D01*
X011021Y015275D02*
X010847Y015275D01*
X010934Y015362D02*
X010934Y015015D01*
X010847Y014928D01*
X010677Y015189D02*
X010330Y015189D01*
X010161Y015102D02*
X009988Y014928D01*
X009814Y015102D01*
X009814Y015449D01*
X009559Y015275D02*
X009646Y015189D01*
X009646Y015015D01*
X009559Y014928D01*
X009299Y014928D01*
X009130Y015015D02*
X009130Y015189D01*
X009043Y015275D01*
X008783Y015275D01*
X008783Y014928D02*
X009043Y014928D01*
X009130Y015015D01*
X009299Y015275D02*
X009559Y015275D01*
X010161Y015449D02*
X010161Y015102D01*
X012052Y014928D02*
X012052Y015449D01*
X011263Y018338D02*
X010916Y018338D01*
X010830Y018425D01*
X010830Y018599D01*
X010916Y018685D01*
X010830Y018854D02*
X010830Y019201D01*
X010830Y019370D02*
X011350Y019370D01*
X011350Y019630D01*
X011263Y019717D01*
X011090Y019717D01*
X011003Y019630D01*
X011003Y019370D01*
X011003Y019543D02*
X010830Y019717D01*
X010830Y019885D02*
X011350Y019885D01*
X010830Y020232D01*
X011350Y020232D01*
X011263Y020917D02*
X010916Y020917D01*
X010830Y021003D01*
X010830Y021177D01*
X010916Y021263D01*
X011263Y021263D01*
X011350Y021177D01*
X011350Y021003D01*
X011263Y020917D01*
X011176Y021432D02*
X011176Y021692D01*
X011090Y021779D01*
X010916Y021779D01*
X010830Y021692D01*
X010830Y021432D01*
X010656Y021432D02*
X011176Y021432D01*
X011090Y021948D02*
X011176Y022035D01*
X011176Y022208D01*
X011090Y022295D01*
X011003Y022295D01*
X011003Y021948D01*
X010916Y021948D02*
X011090Y021948D01*
X010916Y021948D02*
X010830Y022035D01*
X010830Y022208D01*
X010830Y022463D02*
X011176Y022463D01*
X011176Y022724D01*
X011090Y022810D01*
X010830Y022810D01*
X010830Y023495D02*
X011350Y023495D01*
X011090Y023495D02*
X011090Y023842D01*
X010916Y024010D02*
X011003Y024097D01*
X011003Y024357D01*
X011090Y024357D02*
X010830Y024357D01*
X010830Y024097D01*
X010916Y024010D01*
X010830Y023842D02*
X011350Y023842D01*
X011176Y024097D02*
X011176Y024271D01*
X011090Y024357D01*
X011176Y024526D02*
X010830Y024526D01*
X011003Y024526D02*
X011176Y024699D01*
X011176Y024786D01*
X011090Y024956D02*
X011176Y025042D01*
X011176Y025303D01*
X011176Y025471D02*
X010916Y025471D01*
X010830Y025558D01*
X010916Y025645D01*
X010830Y025732D01*
X010916Y025818D01*
X011176Y025818D01*
X011176Y026074D02*
X011176Y026247D01*
X011090Y026334D01*
X010830Y026334D01*
X010830Y026074D01*
X010916Y025987D01*
X011003Y026074D01*
X011003Y026334D01*
X011003Y026503D02*
X011176Y026676D01*
X011176Y026763D01*
X011090Y026932D02*
X011176Y027019D01*
X011176Y027193D01*
X011090Y027279D01*
X011003Y027279D01*
X011003Y026932D01*
X010916Y026932D02*
X011090Y026932D01*
X010916Y026932D02*
X010830Y027019D01*
X010830Y027193D01*
X010830Y026503D02*
X011176Y026503D01*
X011350Y025303D02*
X010830Y025303D01*
X010830Y025042D01*
X010916Y024956D01*
X011090Y024956D01*
X011350Y027964D02*
X010830Y027964D01*
X010830Y028311D01*
X010830Y028479D02*
X010830Y028653D01*
X010830Y028566D02*
X011176Y028566D01*
X011176Y028479D01*
X011350Y028566D02*
X011437Y028566D01*
X011176Y028910D02*
X011090Y028823D01*
X010916Y028823D01*
X010830Y028910D01*
X010830Y029170D01*
X010916Y029339D02*
X011090Y029339D01*
X011176Y029425D01*
X011176Y029599D01*
X011090Y029686D01*
X011003Y029686D01*
X011003Y029339D01*
X010916Y029339D02*
X010830Y029425D01*
X010830Y029599D01*
X010830Y029854D02*
X011176Y029854D01*
X011176Y030114D01*
X011090Y030201D01*
X010830Y030201D01*
X010916Y030370D02*
X010830Y030457D01*
X010830Y030717D01*
X010916Y030886D02*
X011090Y030886D01*
X011176Y030972D01*
X011176Y031146D01*
X011090Y031233D01*
X011003Y031233D01*
X011003Y030886D01*
X010916Y030886D02*
X010830Y030972D01*
X010830Y031146D01*
X011090Y031401D02*
X011090Y031748D01*
X011350Y031917D02*
X010830Y031917D01*
X011003Y032090D01*
X010830Y032264D01*
X011350Y032264D01*
X011176Y030717D02*
X011176Y030457D01*
X011090Y030370D01*
X010916Y030370D01*
X011176Y029170D02*
X011176Y028910D01*
X011350Y019201D02*
X011350Y018854D01*
X010830Y018854D01*
X011090Y018854D02*
X011090Y019027D01*
X011263Y018685D02*
X011350Y018599D01*
X011350Y018425D01*
X011263Y018338D01*
D14*
X018115Y024437D02*
X018402Y024150D01*
X018402Y024078D01*
X018575Y024078D02*
X018862Y024078D01*
X018575Y024365D01*
X018575Y024437D01*
X018647Y024509D01*
X018790Y024509D01*
X018862Y024437D01*
X019036Y024437D02*
X019323Y024150D01*
X019251Y024078D01*
X019107Y024078D01*
X019036Y024150D01*
X019036Y024437D01*
X019107Y024509D01*
X019251Y024509D01*
X019323Y024437D01*
X019323Y024150D01*
X019496Y024150D02*
X019568Y024078D01*
X019711Y024078D01*
X019783Y024150D01*
X019496Y024437D01*
X019496Y024150D01*
X019783Y024150D02*
X019783Y024437D01*
X019711Y024509D01*
X019568Y024509D01*
X019496Y024437D01*
X019956Y024437D02*
X020243Y024150D01*
X020172Y024078D01*
X020028Y024078D01*
X019956Y024150D01*
X019956Y024437D01*
X020028Y024509D01*
X020172Y024509D01*
X020243Y024437D01*
X020243Y024150D01*
X020417Y024150D02*
X020489Y024078D01*
X020632Y024078D01*
X020704Y024150D01*
X020417Y024437D01*
X020417Y024150D01*
X020704Y024150D02*
X020704Y024437D01*
X020632Y024509D01*
X020489Y024509D01*
X020417Y024437D01*
X020877Y024437D02*
X020949Y024509D01*
X021092Y024509D01*
X021164Y024437D01*
X021164Y024365D01*
X021092Y024293D01*
X020949Y024293D01*
X020877Y024222D01*
X020877Y024150D01*
X020949Y024078D01*
X021092Y024078D01*
X021164Y024150D01*
X021338Y024078D02*
X021625Y024078D01*
X021625Y024509D01*
X021338Y024509D01*
X021481Y024293D02*
X021625Y024293D01*
X018402Y024509D02*
X018115Y024509D01*
X018115Y024437D01*
D15*
X012085Y035368D03*
X012075Y035388D03*
X012065Y035398D03*
X012045Y035428D03*
X012035Y035438D03*
X012015Y035468D03*
X011985Y035508D03*
X011955Y035548D03*
X011935Y035578D03*
X011905Y035618D03*
X011715Y035918D03*
X010935Y035718D03*
X010925Y035708D03*
X010915Y035688D03*
X010905Y035678D03*
X010895Y035668D03*
X010885Y035648D03*
X010875Y035638D03*
X010855Y035608D03*
X010845Y035598D03*
X010835Y035578D03*
X010825Y035568D03*
X010815Y035548D03*
X010805Y035538D03*
X010785Y035508D03*
X010775Y035498D03*
X010755Y035468D03*
X010735Y035438D03*
X010725Y035428D03*
X010705Y035398D03*
X010685Y035368D03*
X010575Y036268D03*
X011015Y036798D03*
X011805Y036948D03*
X011815Y036958D03*
X011835Y036988D03*
X011855Y037018D03*
X011885Y037058D03*
X011905Y037088D03*
X011925Y037118D03*
X011935Y037128D03*
X011955Y037158D03*
X011975Y037188D03*
X012005Y037228D03*
D16*
X012000Y037218D03*
X011990Y037208D03*
X011980Y037198D03*
X011970Y037178D03*
X011960Y037168D03*
X011950Y037148D03*
X011940Y037138D03*
X011920Y037108D03*
X011910Y037098D03*
X011900Y037078D03*
X011890Y037068D03*
X011880Y037048D03*
X011870Y037038D03*
X011860Y037028D03*
X011850Y037008D03*
X011840Y036998D03*
X011830Y036978D03*
X011820Y036968D03*
X011040Y036468D03*
X011260Y036188D03*
X011820Y035738D03*
X011820Y035728D03*
X011830Y035718D03*
X011840Y035708D03*
X011850Y035698D03*
X011850Y035688D03*
X011860Y035678D03*
X011870Y035668D03*
X011880Y035658D03*
X011880Y035648D03*
X011890Y035638D03*
X011900Y035628D03*
X011910Y035608D03*
X011920Y035598D03*
X011930Y035588D03*
X011940Y035568D03*
X011950Y035558D03*
X011960Y035538D03*
X011970Y035528D03*
X011980Y035518D03*
X011990Y035498D03*
X012000Y035488D03*
X012010Y035478D03*
X012020Y035458D03*
X012030Y035448D03*
X012050Y035418D03*
X012060Y035408D03*
X012080Y035378D03*
D17*
X011020Y035898D03*
X010920Y035698D03*
X010890Y035658D03*
X010870Y035628D03*
X010860Y035618D03*
X010840Y035588D03*
X010820Y035558D03*
X010800Y035528D03*
X010790Y035518D03*
X010770Y035488D03*
X010760Y035478D03*
X010750Y035458D03*
X010740Y035448D03*
X010720Y035418D03*
X010710Y035408D03*
X010700Y035388D03*
X010690Y035378D03*
X010630Y036798D03*
D18*
X011080Y036488D03*
X011280Y036258D03*
X011280Y036248D03*
X011090Y035928D03*
X010980Y035728D03*
X010520Y036238D03*
X011660Y035938D03*
D19*
X011195Y036108D03*
X011195Y036118D03*
X011025Y035738D03*
X010445Y036048D03*
X010475Y036598D03*
X010825Y036928D03*
X011155Y036648D03*
X011155Y036638D03*
X011155Y036628D03*
X011155Y036618D03*
X011155Y036608D03*
D20*
X011100Y036758D03*
X011090Y036768D03*
X011300Y036438D03*
X011300Y036398D03*
X011300Y036388D03*
X011300Y036308D03*
X011130Y035968D03*
X010510Y035938D03*
X010480Y036208D03*
X010540Y036748D03*
X010550Y036758D03*
X011600Y036698D03*
X011610Y036708D03*
X011610Y035978D03*
X011620Y035968D03*
X011760Y035748D03*
D21*
X011360Y036148D03*
X011350Y036168D03*
X011310Y036528D03*
X011310Y036538D03*
X011700Y036928D03*
X011050Y035748D03*
D22*
X011720Y035758D03*
X010990Y036958D03*
D23*
X011025Y036948D03*
X011295Y036578D03*
X011165Y036148D03*
X011075Y035758D03*
D24*
X010790Y035758D03*
X011340Y036138D03*
D25*
X011300Y036558D03*
X011300Y036568D03*
X011680Y036918D03*
X011700Y035768D03*
X010500Y036588D03*
D26*
X011045Y036938D03*
X011295Y036598D03*
X011295Y036588D03*
X011335Y036128D03*
X011335Y036118D03*
X011085Y035768D03*
X011675Y035778D03*
X011665Y036908D03*
D27*
X011670Y036758D03*
X011270Y036228D03*
X011070Y035918D03*
X010800Y035768D03*
X010530Y036248D03*
X011680Y035928D03*
D28*
X012130Y035778D03*
X010890Y036408D03*
X010720Y036328D03*
D29*
X011290Y036608D03*
X011330Y036108D03*
X011100Y035778D03*
X011660Y035788D03*
D30*
X010805Y035778D03*
X010825Y036908D03*
D31*
X012090Y035788D03*
D32*
X011325Y036088D03*
X011325Y036098D03*
X011315Y036078D03*
X011115Y035788D03*
X011285Y036618D03*
X011285Y036628D03*
X011635Y036888D03*
X011645Y036898D03*
D33*
X010825Y036898D03*
X010805Y035788D03*
D34*
X012065Y035798D03*
D35*
X011640Y035798D03*
X011310Y036058D03*
X011310Y036068D03*
X011130Y035798D03*
X011390Y036528D03*
X011390Y036538D03*
X011400Y036548D03*
X011280Y036638D03*
X011270Y036658D03*
X011060Y036928D03*
D36*
X010805Y035798D03*
D37*
X012045Y035808D03*
D38*
X011635Y035808D03*
X011415Y036118D03*
X011405Y036138D03*
X011305Y036048D03*
X011295Y036028D03*
X011405Y036558D03*
X011405Y036568D03*
X011415Y036588D03*
X011425Y036608D03*
X011275Y036648D03*
X011265Y036668D03*
X011075Y036918D03*
X011625Y036878D03*
D39*
X011610Y036868D03*
X011600Y036858D03*
X011590Y036848D03*
X011430Y036618D03*
X011420Y036598D03*
X011410Y036578D03*
X011260Y036678D03*
X011260Y036688D03*
X011090Y036908D03*
X011410Y036128D03*
X011420Y036108D03*
X011420Y036098D03*
X011300Y036038D03*
X011290Y036018D03*
X011160Y035828D03*
X011150Y035818D03*
X011140Y035808D03*
X011610Y035828D03*
X011620Y035818D03*
D40*
X010845Y036388D03*
X010765Y036348D03*
X010805Y035808D03*
X012115Y036908D03*
D41*
X012035Y035818D03*
X010805Y035858D03*
D42*
X010805Y035818D03*
D43*
X012025Y035828D03*
D44*
X010810Y035828D03*
D45*
X012010Y035838D03*
X012010Y036848D03*
D46*
X010820Y036838D03*
X010810Y035838D03*
D47*
X012005Y035848D03*
D48*
X010810Y035848D03*
X010820Y036828D03*
D49*
X011995Y036828D03*
X011995Y035858D03*
D50*
X011990Y035868D03*
D51*
X010810Y035868D03*
D52*
X011985Y035878D03*
X011985Y036818D03*
D53*
X012015Y036858D03*
X010805Y035878D03*
D54*
X011980Y035888D03*
X011980Y036808D03*
D55*
X012000Y036838D03*
X010810Y035888D03*
D56*
X011975Y035898D03*
X011975Y036798D03*
D57*
X011695Y036768D03*
X011265Y036198D03*
X010585Y035898D03*
X010875Y037018D03*
D58*
X011970Y036788D03*
X011970Y035908D03*
D59*
X011270Y036208D03*
X011270Y036218D03*
X011050Y035908D03*
X010550Y036258D03*
X010910Y036968D03*
X010900Y036978D03*
X010900Y036988D03*
X010890Y036998D03*
X010880Y037008D03*
X010870Y037028D03*
X010860Y037038D03*
X010850Y037048D03*
X010840Y037058D03*
X010840Y037068D03*
X010830Y037078D03*
X010820Y037088D03*
X010810Y037098D03*
X010810Y037108D03*
X010800Y037118D03*
X010790Y037128D03*
X010780Y037138D03*
X010780Y037148D03*
X010770Y037158D03*
X010760Y037168D03*
X010750Y037178D03*
X010750Y037188D03*
X010740Y037198D03*
X010730Y037208D03*
X010720Y037218D03*
X010720Y037228D03*
D60*
X010595Y036788D03*
X011055Y036788D03*
X011275Y036238D03*
X010555Y035908D03*
D61*
X010460Y035998D03*
X010460Y036008D03*
X010450Y036018D03*
X010450Y036028D03*
X010450Y036038D03*
X010440Y036058D03*
X010440Y036068D03*
X010440Y036078D03*
X010440Y036088D03*
X010440Y036098D03*
X010440Y036108D03*
X010440Y036118D03*
X010440Y036128D03*
X010450Y036148D03*
X010480Y036608D03*
X010480Y036618D03*
X010480Y036628D03*
X010480Y036638D03*
X010490Y036658D03*
X010490Y036668D03*
X011140Y036698D03*
X011150Y036688D03*
X011150Y036678D03*
X011150Y036668D03*
X011150Y036658D03*
X011150Y036598D03*
X011150Y036588D03*
X011150Y036578D03*
X011520Y036528D03*
X011520Y036518D03*
X011530Y036558D03*
X011510Y036468D03*
X011510Y036458D03*
X011510Y036448D03*
X011510Y036248D03*
X011510Y036238D03*
X011510Y036228D03*
X011520Y036178D03*
X011530Y036138D03*
X011540Y036108D03*
X011200Y036128D03*
X011200Y036138D03*
X011190Y036098D03*
X011190Y036088D03*
X011190Y036078D03*
X011180Y036048D03*
X012290Y036048D03*
X012290Y036038D03*
X012290Y036028D03*
X012290Y036018D03*
X012290Y036008D03*
X012290Y035998D03*
X012290Y035988D03*
X012290Y035978D03*
X012290Y035968D03*
X012290Y035958D03*
X012290Y035948D03*
X012290Y035938D03*
X012290Y035928D03*
X012290Y035918D03*
X012290Y036058D03*
X012290Y036068D03*
X012290Y036078D03*
X012290Y036088D03*
X012290Y036098D03*
X012290Y036108D03*
X012290Y036118D03*
X012290Y036128D03*
X012290Y036138D03*
X012290Y036148D03*
X012290Y036158D03*
X012290Y036168D03*
X012290Y036178D03*
X012290Y036188D03*
X012290Y036198D03*
X012290Y036208D03*
X012290Y036218D03*
X012290Y036228D03*
X012290Y036238D03*
X012290Y036248D03*
X012290Y036258D03*
X012290Y036268D03*
X012290Y036278D03*
X012290Y036288D03*
X012290Y036298D03*
X012290Y036308D03*
X012290Y036318D03*
X012290Y036328D03*
X012290Y036338D03*
X012290Y036348D03*
X012290Y036358D03*
X012290Y036368D03*
X012290Y036378D03*
X012290Y036388D03*
X012290Y036398D03*
X012290Y036408D03*
X012290Y036418D03*
X012290Y036428D03*
X012290Y036438D03*
X012290Y036448D03*
X012290Y036458D03*
X012290Y036468D03*
X012290Y036478D03*
X012290Y036488D03*
X012290Y036498D03*
X012290Y036508D03*
X012290Y036518D03*
X012290Y036528D03*
X012290Y036538D03*
X012290Y036548D03*
X012290Y036558D03*
X012290Y036568D03*
X012290Y036578D03*
X012290Y036588D03*
X012290Y036598D03*
X012290Y036608D03*
X012290Y036618D03*
X012290Y036628D03*
X012290Y036638D03*
X012290Y036648D03*
X012290Y036658D03*
X012290Y036668D03*
X012290Y036678D03*
X012290Y036688D03*
X012290Y036698D03*
X012290Y036708D03*
X012290Y036718D03*
X012290Y036728D03*
X012290Y036738D03*
X012290Y036748D03*
X012290Y036758D03*
X012290Y036768D03*
D62*
X011655Y036748D03*
X011285Y036268D03*
X011095Y036498D03*
X010575Y036778D03*
X010535Y035918D03*
X011645Y035948D03*
D63*
X011290Y036278D03*
X011290Y036288D03*
X011290Y036418D03*
X011070Y036778D03*
X010560Y036768D03*
X010500Y036228D03*
X010520Y035928D03*
X011100Y035938D03*
X011630Y036728D03*
X011640Y036738D03*
D64*
X011615Y036718D03*
X011295Y036428D03*
X011295Y036408D03*
X011295Y036298D03*
X011105Y036508D03*
X011125Y035958D03*
X011115Y035948D03*
X010495Y036218D03*
X011635Y035958D03*
D65*
X011605Y035988D03*
X011595Y035998D03*
X011305Y036318D03*
X011305Y036328D03*
X011305Y036378D03*
X011305Y036448D03*
X011305Y036458D03*
X011125Y036528D03*
X011115Y036518D03*
X011575Y036658D03*
X011585Y036678D03*
X011595Y036688D03*
X011145Y035978D03*
X010495Y035948D03*
X010475Y036198D03*
X010525Y036738D03*
D66*
X010520Y036728D03*
X010510Y036718D03*
X010510Y036708D03*
X010470Y036188D03*
X010460Y036178D03*
X010480Y035968D03*
X010490Y035958D03*
X011150Y035988D03*
X011160Y035998D03*
X011160Y036008D03*
X011310Y036338D03*
X011310Y036358D03*
X011310Y036368D03*
X011310Y036468D03*
X011320Y036478D03*
X011320Y036488D03*
X011130Y036538D03*
X011120Y036738D03*
X011110Y036748D03*
X011550Y036618D03*
X011560Y036628D03*
X011560Y036638D03*
X011570Y036648D03*
X011580Y036668D03*
X011740Y036938D03*
X011550Y036078D03*
X011560Y036058D03*
X011570Y036038D03*
X011580Y036028D03*
X011580Y036018D03*
X011590Y036008D03*
D67*
X011565Y036048D03*
X011555Y036068D03*
X011545Y036088D03*
X011545Y036098D03*
X011535Y036118D03*
X011535Y036128D03*
X011525Y036148D03*
X011525Y036158D03*
X011525Y036168D03*
X011515Y036188D03*
X011515Y036198D03*
X011515Y036208D03*
X011515Y036218D03*
X011505Y036258D03*
X011505Y036268D03*
X011505Y036278D03*
X011505Y036288D03*
X011505Y036298D03*
X011505Y036308D03*
X011505Y036318D03*
X011505Y036328D03*
X011505Y036338D03*
X011505Y036348D03*
X011505Y036358D03*
X011505Y036368D03*
X011505Y036378D03*
X011505Y036388D03*
X011505Y036398D03*
X011505Y036408D03*
X011505Y036418D03*
X011505Y036428D03*
X011505Y036438D03*
X011515Y036478D03*
X011515Y036488D03*
X011515Y036498D03*
X011515Y036508D03*
X011525Y036538D03*
X011525Y036548D03*
X011535Y036568D03*
X011535Y036578D03*
X011535Y036588D03*
X011545Y036598D03*
X011545Y036608D03*
X011325Y036518D03*
X011325Y036508D03*
X011325Y036498D03*
X011315Y036348D03*
X011325Y036178D03*
X011185Y036068D03*
X011185Y036058D03*
X011175Y036038D03*
X011175Y036028D03*
X011165Y036018D03*
X011135Y036548D03*
X011145Y036558D03*
X011145Y036568D03*
X011135Y036708D03*
X011135Y036718D03*
X011125Y036728D03*
X010505Y036698D03*
X010495Y036688D03*
X010495Y036678D03*
X010485Y036648D03*
X010455Y036168D03*
X010455Y036158D03*
X010445Y036138D03*
X010465Y035988D03*
X010475Y035978D03*
D68*
X011355Y036158D03*
X011305Y036548D03*
D69*
X010600Y036278D03*
D70*
X010615Y036288D03*
D71*
X010640Y036298D03*
D72*
X010665Y036308D03*
D73*
X010690Y036318D03*
D74*
X010740Y036338D03*
X010870Y036398D03*
X010820Y036878D03*
D75*
X010820Y036378D03*
X010780Y036358D03*
D76*
X010805Y036368D03*
X010825Y036868D03*
D77*
X010825Y036888D03*
X010915Y036418D03*
D78*
X010940Y036428D03*
D79*
X010965Y036438D03*
D80*
X010990Y036448D03*
D81*
X011015Y036458D03*
D82*
X011055Y036478D03*
X010825Y036918D03*
D83*
X011965Y036778D03*
D84*
X012030Y036868D03*
X010820Y036808D03*
D85*
X010820Y036818D03*
X012040Y036878D03*
D86*
X012075Y036898D03*
X010825Y036848D03*
D87*
X010825Y036858D03*
D88*
X012055Y036888D03*
D89*
X011160Y016793D02*
X009660Y016793D01*
X009643Y016791D01*
X009626Y016787D01*
X009610Y016780D01*
X009596Y016770D01*
X009583Y016757D01*
X009573Y016743D01*
X009566Y016727D01*
X009562Y016710D01*
X009560Y016693D01*
X009560Y015693D01*
X009562Y015676D01*
X009566Y015659D01*
X009573Y015643D01*
X009583Y015629D01*
X009596Y015616D01*
X009610Y015606D01*
X009626Y015599D01*
X009643Y015595D01*
X009660Y015593D01*
X011160Y015593D01*
X011177Y015595D01*
X011194Y015599D01*
X011210Y015606D01*
X011224Y015616D01*
X011237Y015629D01*
X011247Y015643D01*
X011254Y015659D01*
X011258Y015676D01*
X011260Y015693D01*
X011260Y016693D01*
X011258Y016710D01*
X011254Y016727D01*
X011247Y016743D01*
X011237Y016757D01*
X011224Y016770D01*
X011210Y016780D01*
X011194Y016787D01*
X011177Y016791D01*
X011160Y016793D01*
D90*
X019882Y024813D03*
X019882Y024818D03*
X019882Y024823D03*
X019882Y024828D03*
X019882Y024833D03*
X019882Y024838D03*
X019882Y024843D03*
X019882Y024848D03*
X019882Y024853D03*
X019882Y024858D03*
X019882Y024863D03*
X019882Y024868D03*
X019882Y024873D03*
X019882Y024878D03*
X019882Y024883D03*
X019882Y024888D03*
X019882Y024893D03*
X019882Y024898D03*
X019882Y024903D03*
X019882Y024908D03*
X019882Y024913D03*
X019882Y024918D03*
X019882Y024923D03*
X019882Y024928D03*
X019882Y024933D03*
X019882Y024938D03*
X019882Y024943D03*
X019882Y024948D03*
X019882Y024953D03*
X019882Y024958D03*
D91*
X020117Y025308D03*
X020107Y025528D03*
X020482Y025733D03*
X020472Y025933D03*
X020467Y025938D03*
X020462Y025943D03*
X020847Y025943D03*
X021152Y025943D03*
X021602Y025943D03*
X021602Y025938D03*
X021602Y025933D03*
X021602Y025928D03*
X021602Y025923D03*
X021602Y025918D03*
X021602Y025913D03*
X021602Y025908D03*
X021602Y025903D03*
X021602Y025898D03*
X021602Y025893D03*
X021602Y025888D03*
X021602Y025883D03*
X021602Y025878D03*
X021602Y025873D03*
X021602Y025868D03*
X021602Y025863D03*
X021602Y025858D03*
X021602Y025853D03*
X021602Y025848D03*
X021602Y025843D03*
X021602Y025838D03*
X021602Y025833D03*
X021602Y025828D03*
X021602Y025823D03*
X021602Y025818D03*
X021602Y025813D03*
X021602Y025808D03*
X021602Y025803D03*
X021602Y025798D03*
X021602Y025793D03*
X021602Y025788D03*
X021602Y025783D03*
X021602Y025778D03*
X021602Y025773D03*
X021602Y025768D03*
X021602Y025763D03*
X021602Y025758D03*
X021602Y025753D03*
X021602Y025748D03*
X021602Y025743D03*
X021602Y025738D03*
X021602Y025733D03*
X021602Y025728D03*
X021602Y025723D03*
X021602Y025718D03*
X021602Y025713D03*
X021602Y025708D03*
X021602Y025703D03*
X021602Y025698D03*
X021602Y025693D03*
X021602Y025688D03*
X021602Y025683D03*
X021602Y025678D03*
X021602Y025673D03*
X021602Y025668D03*
X021602Y025663D03*
X021602Y025658D03*
X021602Y025653D03*
X021602Y025648D03*
X021602Y025643D03*
X021602Y025638D03*
X021602Y025633D03*
X021602Y025628D03*
X021602Y025623D03*
X021602Y025618D03*
X021602Y025613D03*
X021602Y025608D03*
X021602Y025603D03*
X021602Y025598D03*
X021602Y025593D03*
X021602Y025588D03*
X021602Y025583D03*
X021602Y025578D03*
X021602Y025573D03*
X021602Y025568D03*
X021602Y025563D03*
X021602Y025558D03*
X021602Y025553D03*
X021602Y025548D03*
X021602Y025543D03*
X021602Y025538D03*
X021602Y025533D03*
X021602Y025528D03*
X021602Y025523D03*
X021602Y025518D03*
X021602Y025513D03*
X021602Y025508D03*
X021602Y025503D03*
X021602Y025498D03*
X021602Y025493D03*
X021602Y025488D03*
X021602Y025483D03*
X021602Y025478D03*
X021602Y025473D03*
X021602Y025468D03*
X021602Y025463D03*
X021602Y025458D03*
X021602Y025453D03*
X021602Y025448D03*
X021602Y025443D03*
X021602Y025438D03*
X021602Y025433D03*
X021602Y025428D03*
X021602Y025423D03*
X021602Y025418D03*
X021602Y025413D03*
X021602Y025408D03*
X021602Y025403D03*
X021602Y025398D03*
X021602Y025393D03*
X021602Y025388D03*
X021602Y025383D03*
X021602Y025378D03*
X021602Y025373D03*
X021602Y025368D03*
X021602Y025363D03*
X021602Y025358D03*
X021602Y025353D03*
X021602Y025348D03*
X021602Y025343D03*
X021602Y025338D03*
X021602Y025333D03*
X021602Y025328D03*
X021602Y025323D03*
X021602Y025318D03*
X021602Y025313D03*
X021602Y025308D03*
X021602Y025303D03*
X021602Y025298D03*
X021602Y025293D03*
X021602Y025288D03*
X021602Y025283D03*
X021602Y025278D03*
X021602Y025273D03*
X021602Y025268D03*
X021602Y025263D03*
X021602Y025258D03*
X021602Y025253D03*
X021602Y025248D03*
X021602Y025243D03*
X021602Y025238D03*
X021602Y025233D03*
X021602Y025228D03*
X021602Y025223D03*
X021602Y025218D03*
X021602Y025213D03*
X021602Y025208D03*
X021602Y025203D03*
X021602Y025198D03*
X021602Y025193D03*
X021602Y025188D03*
X021602Y025183D03*
X021602Y025178D03*
X021602Y025173D03*
X021602Y025168D03*
X021602Y025163D03*
X021602Y025158D03*
X021602Y025153D03*
X021602Y025148D03*
X021602Y025143D03*
X021602Y025138D03*
X021602Y025133D03*
X021602Y025128D03*
X021602Y025123D03*
X021602Y025118D03*
X021602Y025113D03*
X021602Y025108D03*
X021602Y025103D03*
X021602Y025098D03*
X021602Y025093D03*
X021602Y025088D03*
X021602Y025083D03*
X021602Y025078D03*
X021602Y025073D03*
X021602Y025068D03*
X021602Y025063D03*
X021602Y025058D03*
X021602Y025053D03*
X021602Y025048D03*
X021602Y025043D03*
X021602Y025038D03*
X021602Y025033D03*
X021602Y025028D03*
X021602Y025023D03*
X021602Y025018D03*
X021602Y025013D03*
X021602Y025008D03*
X021602Y025003D03*
X021602Y024998D03*
X021602Y024993D03*
X021602Y024988D03*
X021602Y024983D03*
X021602Y024978D03*
X021602Y024973D03*
X021602Y024968D03*
X021602Y024963D03*
X020847Y025298D03*
X020482Y025288D03*
X021602Y025948D03*
X021602Y025953D03*
X021602Y025958D03*
X021602Y025963D03*
X021602Y025968D03*
X021602Y025973D03*
X021602Y025978D03*
X021602Y025983D03*
X021602Y025988D03*
X021602Y025993D03*
X021602Y025998D03*
X021602Y026003D03*
X021602Y026008D03*
X021602Y026013D03*
X021602Y026018D03*
X021602Y026023D03*
X021602Y026028D03*
X021602Y026033D03*
X021602Y026038D03*
X021602Y026043D03*
X021602Y026048D03*
X021602Y026053D03*
X021602Y026058D03*
X021602Y026063D03*
X021602Y026068D03*
X021602Y026073D03*
X021602Y026078D03*
X021602Y026083D03*
X021602Y026088D03*
X021602Y026093D03*
X021602Y026098D03*
X021602Y026103D03*
X021602Y026108D03*
X021602Y026113D03*
X021602Y026118D03*
X021602Y026123D03*
X021602Y026128D03*
X021602Y026133D03*
X021602Y026138D03*
X021602Y026143D03*
X021602Y026148D03*
X021602Y026153D03*
X021602Y026158D03*
X021602Y026163D03*
X021602Y026168D03*
X021602Y026173D03*
X021602Y026178D03*
X021602Y026183D03*
X021602Y026188D03*
X021602Y026193D03*
X021602Y026198D03*
X021602Y026203D03*
X021602Y026208D03*
X021602Y026213D03*
X021602Y026218D03*
X021602Y026223D03*
X021602Y026228D03*
X021602Y026233D03*
X021602Y026238D03*
X021602Y026243D03*
X021602Y026248D03*
X021602Y026253D03*
X021602Y026258D03*
X021602Y026263D03*
X021602Y026268D03*
X021602Y026273D03*
X021602Y026278D03*
X021602Y026283D03*
X021602Y026288D03*
X021602Y026293D03*
X021602Y026298D03*
X021602Y026303D03*
X021602Y026308D03*
X021602Y026313D03*
X019052Y025303D03*
X019052Y025298D03*
X019052Y025293D03*
X019052Y025288D03*
X019052Y025283D03*
X018717Y025278D03*
X018887Y025748D03*
X018887Y025758D03*
X018887Y025763D03*
D92*
X018880Y025823D03*
X018900Y025823D03*
X018915Y025823D03*
X018935Y025823D03*
X018855Y025823D03*
X018835Y025823D03*
X019460Y025708D03*
X019475Y025708D03*
X019495Y025708D03*
X019530Y025708D03*
X019560Y025708D03*
X019595Y025708D03*
X020160Y025938D03*
X020335Y025708D03*
X020290Y025563D03*
X020505Y025333D03*
X020510Y024963D03*
X020520Y024963D03*
X020530Y024963D03*
X020545Y024963D03*
X020555Y024963D03*
X020565Y024963D03*
X020575Y024963D03*
X020585Y024963D03*
X020595Y024963D03*
X020605Y024963D03*
X020615Y024963D03*
X020625Y024963D03*
X020635Y024963D03*
X020645Y024963D03*
X020655Y024963D03*
X020665Y024963D03*
X020675Y024963D03*
X020685Y024963D03*
X020695Y024963D03*
X020705Y024963D03*
X020715Y024963D03*
X020725Y024963D03*
X020735Y024963D03*
X020745Y024963D03*
X020755Y024963D03*
X020765Y024963D03*
X020775Y024963D03*
X020785Y024963D03*
X020795Y024963D03*
X020805Y024963D03*
X020815Y024963D03*
X020825Y024963D03*
X020835Y024963D03*
X020845Y024963D03*
X020855Y024963D03*
X020865Y024963D03*
X020875Y024963D03*
X020885Y024963D03*
X020895Y024963D03*
X020905Y024963D03*
X020915Y024963D03*
X020925Y024963D03*
X020935Y024963D03*
X020945Y024963D03*
X020955Y024963D03*
X020965Y024963D03*
X020975Y024963D03*
X020985Y024963D03*
X020995Y024963D03*
X021005Y024963D03*
X021015Y024963D03*
X021025Y024963D03*
X021035Y024963D03*
X021045Y024963D03*
X021055Y024963D03*
X021070Y024963D03*
X021080Y024963D03*
X021090Y024963D03*
X021100Y024963D03*
X021110Y024963D03*
X021120Y024963D03*
X021135Y024963D03*
X021145Y024963D03*
X021155Y024963D03*
X021165Y024963D03*
X021175Y024963D03*
X021185Y024963D03*
X021195Y024963D03*
X021205Y024963D03*
X021215Y024963D03*
X021225Y024963D03*
X021235Y024963D03*
X021250Y024963D03*
X021265Y024963D03*
X021275Y024963D03*
X021285Y024963D03*
X021295Y024963D03*
X021305Y024963D03*
X021315Y024963D03*
X021325Y024963D03*
X021340Y024963D03*
X021350Y024963D03*
X021360Y024963D03*
X021370Y024963D03*
X021380Y024963D03*
X021390Y024963D03*
X021400Y024963D03*
X021415Y024963D03*
X021425Y024963D03*
X021435Y024963D03*
X021445Y024963D03*
X021455Y024963D03*
X021465Y024963D03*
X021475Y024963D03*
X021485Y024963D03*
X021495Y024963D03*
X021505Y024963D03*
X021515Y024963D03*
X020890Y025188D03*
X020495Y024963D03*
X020485Y024963D03*
X020475Y024963D03*
X020465Y024963D03*
X020455Y024963D03*
X020445Y024963D03*
X020430Y024963D03*
X020420Y024963D03*
X020410Y024963D03*
X020400Y024963D03*
X020390Y024963D03*
X020380Y024963D03*
X020365Y024963D03*
X020355Y024963D03*
X020345Y024963D03*
X020330Y024963D03*
X020320Y024963D03*
X020310Y024963D03*
X020295Y024963D03*
X020285Y024963D03*
X020275Y024963D03*
X020265Y024963D03*
X020255Y024963D03*
X020245Y024963D03*
X020235Y024963D03*
X020225Y024963D03*
X020215Y024963D03*
X020205Y024963D03*
X020195Y024963D03*
X020185Y024963D03*
X020175Y024963D03*
X020165Y024963D03*
X020155Y024963D03*
X020145Y024963D03*
X020135Y024963D03*
X020125Y024963D03*
X020115Y024963D03*
X020105Y024963D03*
X020095Y024963D03*
X020085Y024963D03*
X020075Y024963D03*
X020065Y024963D03*
X020055Y024963D03*
X020045Y024963D03*
X020035Y024963D03*
X020025Y024963D03*
X020015Y024963D03*
X020005Y024963D03*
X019995Y024963D03*
X019985Y024963D03*
X019975Y024963D03*
X019965Y024963D03*
X019955Y024963D03*
X019945Y024963D03*
X019935Y024963D03*
X019925Y024963D03*
X019915Y024963D03*
X019905Y024963D03*
X019895Y024963D03*
X019885Y024963D03*
X019875Y024963D03*
X019865Y024963D03*
X019855Y024963D03*
X019845Y024963D03*
X019835Y024963D03*
X019825Y024963D03*
X019815Y024963D03*
X019805Y024963D03*
X019795Y024963D03*
X019785Y024963D03*
X019775Y024963D03*
X019765Y024963D03*
X019755Y024963D03*
X019745Y024963D03*
X019735Y024963D03*
X019725Y024963D03*
X019715Y024963D03*
X019705Y024963D03*
X019695Y024963D03*
X019685Y024963D03*
X019675Y024963D03*
X019665Y024963D03*
X019655Y024963D03*
X019645Y024963D03*
X019635Y024963D03*
X019625Y024963D03*
X019615Y024963D03*
X019605Y024963D03*
X019595Y024963D03*
X019585Y024963D03*
X019570Y024963D03*
X019560Y024963D03*
X019550Y024963D03*
X019540Y024963D03*
X019530Y024963D03*
X019520Y024963D03*
X019510Y024963D03*
X019500Y024963D03*
X019490Y024963D03*
X019480Y024963D03*
X019470Y024963D03*
X019460Y024963D03*
X019450Y024963D03*
X019440Y024963D03*
X019430Y024963D03*
X019420Y024963D03*
X019410Y024963D03*
X019400Y024963D03*
X019390Y024963D03*
X019380Y024963D03*
X019370Y024963D03*
X019360Y024963D03*
X019350Y024963D03*
X019340Y024963D03*
X019330Y024963D03*
X019320Y024963D03*
X019295Y024963D03*
X019285Y024963D03*
X019275Y024963D03*
X019250Y024963D03*
X019225Y024963D03*
X019215Y024963D03*
X019205Y024963D03*
X019195Y024963D03*
X019185Y024963D03*
X019175Y024963D03*
X019165Y024963D03*
X019155Y024963D03*
X019145Y024963D03*
X019135Y024963D03*
X019125Y024963D03*
X019115Y024963D03*
X019105Y024963D03*
X019095Y024963D03*
X019085Y024963D03*
X019075Y024963D03*
X019065Y024963D03*
X019055Y024963D03*
X019045Y024963D03*
X019035Y024963D03*
X019025Y024963D03*
X019015Y024963D03*
X019005Y024963D03*
X018995Y024963D03*
X018985Y024963D03*
X018975Y024963D03*
X018965Y024963D03*
X018955Y024963D03*
X018945Y024963D03*
X018935Y024963D03*
X018925Y024963D03*
X018915Y024963D03*
X018905Y024963D03*
X018895Y024963D03*
X018885Y024963D03*
X018875Y024963D03*
X018865Y024963D03*
X018855Y024963D03*
X018845Y024963D03*
X018835Y024963D03*
X018825Y024963D03*
X018815Y024963D03*
X018805Y024963D03*
X018795Y024963D03*
X018785Y024963D03*
X018775Y024963D03*
X018765Y024963D03*
X018755Y024963D03*
X018745Y024963D03*
X018735Y024963D03*
X018725Y024963D03*
X018700Y024963D03*
X018690Y024963D03*
X018680Y024963D03*
X018670Y024963D03*
X018660Y024963D03*
X018650Y024963D03*
X018640Y024963D03*
X018630Y024963D03*
X018620Y024963D03*
X018610Y024963D03*
X018600Y024963D03*
X018590Y024963D03*
X018580Y024963D03*
X018570Y024963D03*
X018560Y024963D03*
X018550Y024963D03*
X018540Y024963D03*
X018530Y024963D03*
X018520Y024963D03*
X018510Y024963D03*
X018500Y024963D03*
X018490Y024963D03*
X018480Y024963D03*
X018470Y024963D03*
X018460Y024963D03*
X018450Y024963D03*
X018435Y024963D03*
X018425Y024963D03*
X018410Y024963D03*
X018400Y024963D03*
X018390Y024963D03*
X018375Y024963D03*
X018360Y024963D03*
X018345Y024963D03*
X018330Y024963D03*
X018310Y024963D03*
X018295Y024963D03*
X018275Y024963D03*
X018260Y024963D03*
X018245Y024963D03*
D93*
X018712Y024963D03*
X019237Y024963D03*
X019262Y024963D03*
X019307Y024963D03*
X020557Y025358D03*
D94*
X020840Y025308D03*
X020845Y025303D03*
X021000Y025178D03*
X021155Y025303D03*
X021160Y025308D03*
X021160Y025933D03*
X021155Y025938D03*
X020845Y025938D03*
X020840Y025933D03*
X020490Y025738D03*
X020105Y025523D03*
X020110Y025313D03*
X019055Y025278D03*
X018715Y025273D03*
X018715Y025268D03*
X018715Y025263D03*
X018715Y025258D03*
X018890Y025768D03*
X018160Y025518D03*
X018160Y025453D03*
X018160Y025393D03*
X018160Y025358D03*
X018160Y025318D03*
X018160Y025273D03*
X018160Y025243D03*
X018160Y025208D03*
X018160Y025183D03*
X018160Y025153D03*
X018160Y025133D03*
X018160Y025113D03*
X018160Y025098D03*
X018160Y025073D03*
X018160Y025048D03*
X018160Y025023D03*
X018160Y025003D03*
X018160Y024983D03*
X018160Y024963D03*
D95*
X018157Y024968D03*
X018157Y024973D03*
X018157Y024978D03*
X018157Y024988D03*
X018157Y024993D03*
X018157Y024998D03*
X018157Y025008D03*
X018157Y025013D03*
X018157Y025018D03*
X018157Y025028D03*
X018157Y025033D03*
X018157Y025038D03*
X018157Y025043D03*
X018157Y025053D03*
X018157Y025058D03*
X018157Y025063D03*
X018157Y025068D03*
X018157Y025078D03*
X018157Y025083D03*
X018157Y025088D03*
X018157Y025093D03*
X018157Y025103D03*
X018157Y025108D03*
X018157Y025118D03*
X018157Y025123D03*
X018157Y025128D03*
X018157Y025138D03*
X018157Y025143D03*
X018157Y025148D03*
X018157Y025158D03*
X018157Y025163D03*
X018157Y025168D03*
X018157Y025173D03*
X018157Y025178D03*
X018157Y025188D03*
X018157Y025193D03*
X018157Y025198D03*
X018157Y025203D03*
X018157Y025213D03*
X018157Y025218D03*
X018157Y025223D03*
X018157Y025228D03*
X018157Y025233D03*
X018157Y025238D03*
X018157Y025248D03*
X018157Y025253D03*
X018157Y025258D03*
X018157Y025263D03*
X018157Y025268D03*
X018157Y025278D03*
X018157Y025283D03*
X018157Y025288D03*
X018157Y025293D03*
X018157Y025298D03*
X018157Y025303D03*
X018157Y025308D03*
X018157Y025313D03*
X018157Y025323D03*
X018157Y025328D03*
X018157Y025333D03*
X018157Y025338D03*
X018157Y025343D03*
X018157Y025348D03*
X018157Y025353D03*
X018157Y025363D03*
X018157Y025368D03*
X018157Y025373D03*
X018157Y025378D03*
X018157Y025383D03*
X018157Y025388D03*
X018157Y025398D03*
X018157Y025403D03*
X018157Y025408D03*
X018157Y025413D03*
X018157Y025418D03*
X018157Y025423D03*
X018157Y025428D03*
X018157Y025433D03*
X018157Y025438D03*
X018157Y025443D03*
X018157Y025448D03*
X018157Y025458D03*
X018157Y025463D03*
X018157Y025468D03*
X018157Y025473D03*
X018157Y025478D03*
X018157Y025483D03*
X018157Y025488D03*
X018157Y025493D03*
X018157Y025498D03*
X018157Y025503D03*
X018157Y025508D03*
X018157Y025513D03*
X018157Y025523D03*
X018157Y025528D03*
X018157Y025533D03*
X018157Y025538D03*
X018157Y025543D03*
X018157Y025548D03*
X018157Y025553D03*
X018157Y025558D03*
X018157Y025563D03*
X018157Y025568D03*
X018157Y025573D03*
X018157Y025578D03*
X018157Y025583D03*
X018157Y025588D03*
X018157Y025593D03*
X018157Y025598D03*
X018157Y025603D03*
X018157Y025608D03*
X018157Y025613D03*
X018157Y025618D03*
X018157Y025623D03*
X018157Y025628D03*
X018157Y025633D03*
X018157Y025638D03*
X018157Y025643D03*
X018157Y025648D03*
X018157Y025653D03*
X018157Y025658D03*
X018157Y025663D03*
X018157Y025668D03*
X018157Y025673D03*
X018157Y025678D03*
X018157Y025683D03*
X018157Y025688D03*
X018157Y025693D03*
X018157Y025698D03*
X018157Y025703D03*
X018157Y025708D03*
X018157Y025713D03*
X018157Y025718D03*
X018157Y025723D03*
X018157Y025728D03*
X018157Y025733D03*
X018157Y025738D03*
X018157Y025743D03*
X018157Y025748D03*
X018157Y025753D03*
X018157Y025758D03*
X018157Y025763D03*
X018157Y025768D03*
X018157Y025773D03*
X018157Y025778D03*
X018157Y025783D03*
X018157Y025788D03*
X018157Y025793D03*
X018157Y025798D03*
X018157Y025803D03*
X018157Y025808D03*
X018157Y025813D03*
X018157Y025818D03*
X018157Y025823D03*
X018157Y025828D03*
X018157Y025833D03*
X018157Y025838D03*
X018157Y025843D03*
X018157Y025848D03*
X018157Y025853D03*
X018157Y025858D03*
X018157Y025863D03*
X018157Y025868D03*
X018157Y025873D03*
X018157Y025878D03*
X018157Y025883D03*
X018157Y025888D03*
X018157Y025893D03*
X018157Y025898D03*
X018157Y025918D03*
X018157Y025943D03*
X018157Y025963D03*
X018157Y025978D03*
X018157Y025998D03*
X018157Y026018D03*
X018157Y026043D03*
X018157Y026068D03*
X018157Y026098D03*
X018157Y026113D03*
X018157Y026133D03*
X018157Y026153D03*
X018157Y026183D03*
X018157Y026203D03*
X018157Y026233D03*
X018157Y026253D03*
X018157Y026273D03*
X018157Y026293D03*
X018157Y026318D03*
X018157Y026353D03*
X018157Y026373D03*
X018157Y026398D03*
X018157Y026438D03*
X018887Y025788D03*
X018887Y025783D03*
X018887Y025778D03*
X018887Y025773D03*
X019052Y025273D03*
X019052Y025268D03*
X019052Y025263D03*
X019052Y025258D03*
X018717Y025253D03*
X020107Y025318D03*
X020102Y025518D03*
X020492Y025743D03*
X020477Y025928D03*
X020832Y025923D03*
X020837Y025928D03*
X021167Y025923D03*
X021162Y025313D03*
D96*
X021000Y025173D03*
X018990Y025418D03*
X018990Y025423D03*
X018990Y025428D03*
X018990Y025433D03*
X018985Y025443D03*
X018985Y025448D03*
X018985Y025453D03*
X018985Y025458D03*
X018980Y025468D03*
X018980Y025473D03*
X018980Y025478D03*
X018975Y025488D03*
X018975Y025493D03*
X018975Y025498D03*
X018970Y025508D03*
X018970Y025518D03*
X018970Y025523D03*
X018965Y025528D03*
X018965Y025533D03*
X018965Y025538D03*
X018960Y025553D03*
X018960Y025558D03*
X018955Y025583D03*
X018950Y025608D03*
X018940Y025653D03*
X018940Y025658D03*
X018830Y025628D03*
X018825Y025618D03*
X018825Y025613D03*
X018825Y025603D03*
X018820Y025598D03*
X018820Y025593D03*
X018820Y025588D03*
X018820Y025583D03*
X018815Y025578D03*
X018815Y025573D03*
X018815Y025568D03*
X018810Y025553D03*
X018810Y025548D03*
X018805Y025528D03*
X018805Y025523D03*
X018805Y025518D03*
X018800Y025503D03*
X018800Y025498D03*
X018800Y025493D03*
X018795Y025478D03*
X018795Y025473D03*
X018795Y025468D03*
X018790Y025453D03*
X018785Y025438D03*
X018785Y025433D03*
X018785Y025428D03*
X018780Y025408D03*
X018780Y025403D03*
D97*
X018635Y025553D03*
X018635Y025558D03*
X018630Y025578D03*
X018595Y025733D03*
X018595Y025738D03*
X018595Y025743D03*
X018595Y025748D03*
X018590Y025763D03*
X018590Y025768D03*
X018590Y025773D03*
X018565Y025888D03*
X018560Y025903D03*
X018560Y025908D03*
X018560Y025913D03*
X018555Y025918D03*
X018555Y025923D03*
X018555Y025928D03*
X018555Y025933D03*
X018555Y025938D03*
X018550Y025948D03*
X018550Y025953D03*
X018550Y025963D03*
X018530Y026053D03*
X018525Y026078D03*
X018520Y026088D03*
X018520Y026093D03*
X018520Y026098D03*
X018520Y026103D03*
X018515Y026108D03*
X018515Y026113D03*
X018515Y026118D03*
X018515Y026123D03*
X018515Y026128D03*
X018510Y026138D03*
X018505Y026163D03*
X018500Y026188D03*
X018500Y026193D03*
X018495Y026213D03*
X018495Y026218D03*
X018490Y026238D03*
X018490Y026243D03*
X018485Y026248D03*
X018485Y026253D03*
X018485Y026258D03*
X018485Y026263D03*
X018480Y026278D03*
X018480Y026283D03*
X018480Y026288D03*
X018475Y026303D03*
X018475Y026308D03*
X018475Y026313D03*
X018470Y026323D03*
X018470Y026328D03*
X018470Y026333D03*
X018465Y026348D03*
X018465Y026353D03*
X018465Y026358D03*
X018460Y026373D03*
X018460Y026378D03*
X018460Y026383D03*
X018455Y026398D03*
X018455Y026403D03*
X018455Y026408D03*
X018450Y026418D03*
X018450Y026423D03*
X018450Y026428D03*
X018445Y026443D03*
X018445Y026448D03*
X018440Y026468D03*
X018440Y026473D03*
X018440Y026478D03*
X018435Y026498D03*
X018430Y026508D03*
X018430Y026513D03*
X018430Y026518D03*
X018430Y026523D03*
X018425Y026533D03*
X018425Y026538D03*
X018425Y026543D03*
X018425Y026548D03*
X018420Y026558D03*
X018420Y026563D03*
X018420Y026568D03*
X018420Y026573D03*
X018420Y026578D03*
X018415Y026583D03*
X018415Y026588D03*
X018415Y026593D03*
X018410Y026608D03*
X018410Y026613D03*
X018405Y026638D03*
X018400Y026663D03*
X018395Y026683D03*
X019180Y026043D03*
X019180Y026038D03*
X019180Y026033D03*
X019180Y026028D03*
X019180Y026023D03*
X019180Y026018D03*
X019180Y026013D03*
X019175Y026003D03*
X019175Y025998D03*
X019175Y025993D03*
X019175Y025988D03*
X019175Y025983D03*
X019175Y025978D03*
X019175Y025973D03*
X019170Y025963D03*
X019170Y025958D03*
X019170Y025953D03*
X019170Y025948D03*
X019165Y025928D03*
X019165Y025923D03*
X019165Y025918D03*
X019165Y025913D03*
X019165Y025908D03*
X019165Y025903D03*
X019160Y025888D03*
X019160Y025883D03*
X019160Y025878D03*
X019160Y025873D03*
X019160Y025868D03*
X019160Y025863D03*
X019155Y025848D03*
X019155Y025833D03*
X019375Y025833D03*
X019375Y025828D03*
X019375Y025823D03*
X019375Y025818D03*
X019375Y025813D03*
X019375Y025808D03*
X019375Y025803D03*
X019375Y025798D03*
X019375Y025793D03*
X019375Y025788D03*
X019375Y025783D03*
X019375Y025778D03*
X019375Y025773D03*
X019375Y025768D03*
X019375Y025763D03*
X019375Y025758D03*
X019375Y025753D03*
X019375Y025748D03*
X019375Y025743D03*
X019375Y025738D03*
X019375Y025733D03*
X019375Y025728D03*
X019375Y025723D03*
X019375Y025718D03*
X019375Y025713D03*
X019375Y025708D03*
X019375Y025588D03*
X019375Y025583D03*
X019375Y025578D03*
X019375Y025573D03*
X019375Y025568D03*
X019375Y025563D03*
X019375Y025558D03*
X019375Y025553D03*
X019375Y025548D03*
X019375Y025543D03*
X019375Y025538D03*
X019375Y025533D03*
X019375Y025528D03*
X019375Y025523D03*
X019375Y025518D03*
X019375Y025513D03*
X019375Y025508D03*
X019375Y025503D03*
X019375Y025498D03*
X019375Y025493D03*
X019375Y025488D03*
X019375Y025483D03*
X019375Y025478D03*
X019375Y025473D03*
X019375Y025468D03*
X019375Y025463D03*
X019375Y025458D03*
X019375Y025453D03*
X019375Y025448D03*
X019375Y025443D03*
X019375Y025438D03*
X019375Y025433D03*
X019375Y025428D03*
X019375Y025423D03*
X019375Y025418D03*
X019375Y025413D03*
X019375Y025408D03*
X019375Y025403D03*
X019375Y025398D03*
X019375Y025393D03*
X019375Y025388D03*
X019375Y025383D03*
X019375Y025378D03*
X019375Y025373D03*
X019375Y025368D03*
X019375Y025363D03*
X019375Y025358D03*
X019375Y025353D03*
X019375Y025348D03*
X019375Y025343D03*
X019375Y025338D03*
X019375Y025333D03*
X019375Y025328D03*
X019375Y025323D03*
X019375Y025318D03*
X019375Y025313D03*
X019375Y025308D03*
X019375Y025303D03*
X019375Y025298D03*
X019375Y025293D03*
X019375Y025288D03*
X019375Y025283D03*
X019375Y025278D03*
X019375Y025273D03*
X019375Y025268D03*
X019375Y025263D03*
X019375Y025258D03*
X019375Y025253D03*
X019375Y025248D03*
X019375Y025243D03*
X019375Y025238D03*
X019375Y025233D03*
X019375Y025228D03*
X019375Y025223D03*
X019375Y025218D03*
X019375Y025213D03*
X019375Y025208D03*
X019375Y025203D03*
X019375Y025198D03*
X019375Y025193D03*
X019375Y025188D03*
X019055Y025193D03*
X019055Y025198D03*
X018715Y025198D03*
X018715Y025193D03*
X019375Y025838D03*
X019375Y025843D03*
X019375Y025848D03*
X019375Y025853D03*
X019375Y025858D03*
X019375Y025863D03*
X019375Y025868D03*
X019375Y025873D03*
X019375Y025878D03*
X019375Y025883D03*
X019375Y025888D03*
X019375Y025893D03*
X019375Y025898D03*
X019375Y025903D03*
X019375Y025908D03*
X019375Y025913D03*
X019375Y025918D03*
X019375Y025923D03*
X019375Y025928D03*
X019375Y025933D03*
X019375Y025938D03*
X019375Y025943D03*
X019375Y025948D03*
X019375Y025953D03*
X019375Y025958D03*
X019375Y025963D03*
X019375Y025968D03*
X019375Y025973D03*
X019375Y025978D03*
X019375Y025983D03*
X019375Y025988D03*
X019375Y025993D03*
X019375Y025998D03*
X019375Y026003D03*
X019375Y026008D03*
X019375Y026013D03*
X019375Y026018D03*
X019375Y026023D03*
X019375Y026028D03*
X019375Y026033D03*
X019375Y026038D03*
X019375Y026043D03*
X019375Y026048D03*
X019375Y026053D03*
X020075Y025443D03*
X020075Y025438D03*
X020075Y025433D03*
X020075Y025428D03*
X020075Y025423D03*
X020075Y025418D03*
X020075Y025413D03*
X020075Y025408D03*
X020075Y025403D03*
X020080Y025373D03*
X020085Y025363D03*
X020085Y025358D03*
X020315Y025173D03*
X019810Y025188D03*
X020510Y025788D03*
X020510Y025793D03*
X020510Y025798D03*
X020510Y025803D03*
X020510Y025808D03*
X020510Y025813D03*
X020510Y025848D03*
X020510Y025853D03*
X020510Y025858D03*
X020510Y025863D03*
X020505Y025873D03*
X020505Y025878D03*
X020505Y025883D03*
D98*
X020315Y025178D03*
X019050Y025398D03*
X019050Y025403D03*
X018715Y025373D03*
D99*
X019050Y025373D03*
X019050Y025368D03*
X019050Y025363D03*
X019050Y025378D03*
X019050Y025383D03*
X018885Y025668D03*
X018885Y025673D03*
X018885Y025678D03*
X020135Y025548D03*
X021000Y025183D03*
D100*
X020317Y025183D03*
X020172Y025568D03*
X020427Y025698D03*
D101*
X020447Y025708D03*
X020452Y025713D03*
X020142Y025553D03*
X020152Y025283D03*
X021002Y025188D03*
X019047Y025408D03*
X019047Y025413D03*
X018717Y025383D03*
X018717Y025378D03*
D102*
X020322Y025188D03*
D103*
X019102Y025433D03*
X019102Y025438D03*
X019102Y025443D03*
X019102Y025448D03*
X019102Y025453D03*
X019102Y025458D03*
X019107Y025473D03*
X019107Y025478D03*
X019107Y025483D03*
X019107Y025488D03*
X019107Y025493D03*
X019107Y025498D03*
X019107Y025503D03*
X019107Y025508D03*
X019112Y025513D03*
X019112Y025518D03*
X019112Y025523D03*
X019112Y025528D03*
X019112Y025533D03*
X019112Y025538D03*
X019112Y025543D03*
X019117Y025558D03*
X019117Y025563D03*
X019117Y025568D03*
X019117Y025573D03*
X019117Y025578D03*
X019057Y025188D03*
D104*
X018717Y025188D03*
X018667Y025398D03*
X018667Y025403D03*
X018662Y025413D03*
X018662Y025418D03*
X018662Y025423D03*
X018657Y025443D03*
X018657Y025448D03*
X018652Y025468D03*
X018652Y025473D03*
X018647Y025498D03*
X018642Y025523D03*
X018642Y025528D03*
X018637Y025543D03*
X018637Y025548D03*
X018632Y025563D03*
X018632Y025568D03*
X018632Y025573D03*
X018627Y025583D03*
X018627Y025588D03*
X018627Y025598D03*
X018622Y025603D03*
X018622Y025608D03*
X018622Y025613D03*
X018617Y025628D03*
X018617Y025633D03*
X018617Y025638D03*
X018612Y025653D03*
X018612Y025658D03*
X018612Y025663D03*
X018607Y025683D03*
X018607Y025688D03*
X018607Y025693D03*
X018602Y025708D03*
X018602Y025713D03*
X018602Y025718D03*
X018597Y025723D03*
X018597Y025728D03*
X018592Y025753D03*
X018592Y025758D03*
X018587Y025778D03*
X018582Y025788D03*
X018582Y025793D03*
X018582Y025798D03*
X018582Y025803D03*
X018582Y025808D03*
X018577Y025818D03*
X018577Y025823D03*
X018577Y025828D03*
X018577Y025833D03*
X018572Y025843D03*
X018572Y025848D03*
X018572Y025853D03*
X018572Y025858D03*
X018567Y025868D03*
X018567Y025873D03*
X018567Y025878D03*
X018567Y025883D03*
X018562Y025893D03*
X018562Y025898D03*
X018552Y025943D03*
X018547Y025958D03*
X018547Y025968D03*
X018547Y025973D03*
X018542Y025978D03*
X018542Y025983D03*
X018542Y025988D03*
X018542Y025993D03*
X018542Y025998D03*
X018537Y026003D03*
X018537Y026008D03*
X018537Y026013D03*
X018537Y026018D03*
X018537Y026023D03*
X018532Y026028D03*
X018532Y026033D03*
X018532Y026038D03*
X018532Y026043D03*
X018532Y026048D03*
X018527Y026058D03*
X018527Y026063D03*
X018527Y026068D03*
X018522Y026083D03*
X018507Y026143D03*
X018507Y026148D03*
X018507Y026153D03*
X018507Y026158D03*
X018502Y026168D03*
X018502Y026173D03*
X018502Y026178D03*
X018502Y026183D03*
X018497Y026198D03*
X018497Y026203D03*
X018497Y026208D03*
X018492Y026223D03*
X018492Y026228D03*
X018492Y026233D03*
X018467Y026338D03*
X018467Y026343D03*
X018462Y026363D03*
X018462Y026368D03*
X018457Y026388D03*
X018457Y026393D03*
X018452Y026413D03*
X018432Y026503D03*
X018427Y026528D03*
X018422Y026553D03*
X019182Y026053D03*
X019177Y026008D03*
X019172Y025968D03*
X019157Y025858D03*
X019157Y025853D03*
X019152Y025843D03*
X019152Y025838D03*
X019152Y025828D03*
X019152Y025823D03*
X019152Y025818D03*
X019147Y025803D03*
X019147Y025798D03*
X019147Y025793D03*
X019147Y025788D03*
X019147Y025783D03*
X019147Y025778D03*
X019142Y025753D03*
X019142Y025748D03*
X019142Y025743D03*
X019137Y025708D03*
X019137Y025703D03*
X019132Y025663D03*
X019127Y025643D03*
X019127Y025633D03*
X019127Y025628D03*
X019122Y025603D03*
X019122Y025598D03*
X020122Y025948D03*
X020507Y025868D03*
X020512Y025843D03*
X020512Y025838D03*
X020512Y025833D03*
X020512Y025828D03*
X020512Y025823D03*
X020512Y025818D03*
X020502Y025303D03*
D105*
X021002Y025193D03*
D106*
X021000Y025213D03*
X020320Y025193D03*
X020385Y025683D03*
X020275Y026043D03*
X021000Y026028D03*
D107*
X021192Y025873D03*
X021197Y025863D03*
X021222Y025713D03*
X021222Y025708D03*
X021222Y025698D03*
X021222Y025693D03*
X021222Y025548D03*
X021222Y025543D03*
X021222Y025538D03*
X021222Y025528D03*
X021192Y025368D03*
X020777Y025513D03*
X020777Y025523D03*
X020777Y025528D03*
X020777Y025538D03*
X020777Y025543D03*
X020777Y025693D03*
X020777Y025698D03*
X020777Y025703D03*
X020777Y025713D03*
X020777Y025718D03*
X020777Y025723D03*
X020807Y025873D03*
X020502Y025888D03*
X020497Y025893D03*
X020507Y025783D03*
X020507Y025778D03*
X020507Y025773D03*
X020082Y025483D03*
X020077Y025468D03*
X020077Y025463D03*
X020077Y025458D03*
X020077Y025453D03*
X020077Y025448D03*
X020077Y025398D03*
X020077Y025393D03*
X020077Y025388D03*
X020077Y025383D03*
X020077Y025378D03*
X020082Y025368D03*
X019807Y025368D03*
X019807Y025363D03*
X019807Y025358D03*
X019807Y025353D03*
X019807Y025348D03*
X019807Y025343D03*
X019807Y025338D03*
X019807Y025333D03*
X019807Y025328D03*
X019807Y025323D03*
X019807Y025318D03*
X019807Y025313D03*
X019807Y025308D03*
X019807Y025303D03*
X019807Y025298D03*
X019807Y025293D03*
X019807Y025288D03*
X019807Y025283D03*
X019807Y025278D03*
X019807Y025273D03*
X019807Y025268D03*
X019807Y025263D03*
X019807Y025258D03*
X019807Y025253D03*
X019807Y025248D03*
X019807Y025243D03*
X019807Y025238D03*
X019807Y025233D03*
X019807Y025228D03*
X019807Y025223D03*
X019807Y025218D03*
X019807Y025213D03*
X019807Y025208D03*
X019807Y025203D03*
X019807Y025198D03*
X019807Y025193D03*
X019807Y025373D03*
X019807Y025378D03*
X019807Y025383D03*
X019807Y025388D03*
X019807Y025393D03*
X019807Y025398D03*
X019807Y025403D03*
X019807Y025408D03*
X019807Y025413D03*
X019807Y025418D03*
X019807Y025423D03*
X019807Y025428D03*
X019807Y025433D03*
X019807Y025438D03*
X019807Y025443D03*
X019807Y025448D03*
X019807Y025453D03*
X019807Y025458D03*
X019807Y025463D03*
X019807Y025468D03*
X019807Y025473D03*
X019807Y025478D03*
X019807Y025483D03*
X019807Y025488D03*
X019807Y025493D03*
X019807Y025498D03*
X019807Y025503D03*
X019807Y025508D03*
X019807Y025513D03*
X019807Y025518D03*
X019807Y025523D03*
X019807Y025528D03*
X019807Y025533D03*
X019807Y025538D03*
X019807Y025543D03*
X019807Y025548D03*
X019807Y025553D03*
X019807Y025558D03*
X019807Y025563D03*
X019807Y025568D03*
X019807Y025573D03*
X019807Y025578D03*
X019807Y025583D03*
X019807Y025588D03*
X019807Y025708D03*
X019807Y025713D03*
X019807Y025718D03*
X019807Y025723D03*
X019807Y025728D03*
X019807Y025733D03*
X019807Y025738D03*
X019807Y025743D03*
X019807Y025748D03*
X019807Y025753D03*
X019807Y025758D03*
X019807Y025763D03*
X019807Y025768D03*
X019807Y025773D03*
X019807Y025778D03*
X019807Y025783D03*
X019807Y025788D03*
X019807Y025793D03*
X019807Y025798D03*
X019807Y025803D03*
X019807Y025808D03*
X019807Y025813D03*
X019807Y025818D03*
X019807Y025823D03*
X019807Y025828D03*
X019807Y025833D03*
X019807Y025838D03*
X019807Y025843D03*
X019807Y025848D03*
X019807Y025853D03*
X019807Y025858D03*
X019807Y025863D03*
X019807Y025868D03*
X019807Y025873D03*
X019807Y025878D03*
X019807Y025883D03*
X019807Y025888D03*
X019807Y025893D03*
X019807Y025898D03*
X019807Y025903D03*
X019807Y025908D03*
X019807Y025913D03*
X019807Y025918D03*
X019807Y025923D03*
X019807Y025928D03*
X019807Y025933D03*
X019807Y025938D03*
X019807Y025943D03*
X019807Y025948D03*
X019807Y025953D03*
X019807Y025958D03*
X019807Y025963D03*
X019807Y025968D03*
X019807Y025973D03*
X019807Y025978D03*
X019807Y025983D03*
X019807Y025988D03*
X019807Y025993D03*
X019807Y025998D03*
X019807Y026003D03*
X019807Y026008D03*
X019807Y026013D03*
X019807Y026018D03*
X019807Y026023D03*
X019807Y026028D03*
X019807Y026033D03*
X019807Y026038D03*
X019807Y026043D03*
X019807Y026048D03*
X019807Y026053D03*
X019182Y026048D03*
X019167Y025943D03*
X019167Y025938D03*
X019167Y025933D03*
X019162Y025898D03*
X019162Y025893D03*
X019057Y025208D03*
X019057Y025203D03*
X018717Y025203D03*
X018522Y026073D03*
X018512Y026133D03*
X018482Y026268D03*
X018482Y026273D03*
X018477Y026293D03*
X018477Y026298D03*
X018472Y026318D03*
X018447Y026433D03*
X018447Y026438D03*
X018442Y026453D03*
X018442Y026458D03*
X018442Y026463D03*
X018437Y026483D03*
X018437Y026488D03*
X018437Y026493D03*
X018412Y026598D03*
X018412Y026603D03*
X018407Y026618D03*
X018407Y026623D03*
X018407Y026628D03*
X018407Y026633D03*
X018402Y026643D03*
X018402Y026648D03*
X018402Y026653D03*
X018402Y026658D03*
X018397Y026668D03*
X018397Y026673D03*
X018397Y026678D03*
D108*
X021000Y026043D03*
X021000Y025198D03*
D109*
X021000Y025223D03*
X020325Y025198D03*
X020235Y025593D03*
X021000Y026018D03*
D110*
X021000Y026038D03*
X021000Y025203D03*
D111*
X021000Y025238D03*
X020325Y025203D03*
X020320Y025648D03*
X020330Y025653D03*
X021000Y026003D03*
D112*
X021000Y025208D03*
D113*
X020327Y025208D03*
X021002Y025993D03*
D114*
X021185Y025893D03*
X021185Y025888D03*
X021190Y025883D03*
X021190Y025878D03*
X021195Y025868D03*
X021200Y025858D03*
X021200Y025853D03*
X021200Y025848D03*
X021205Y025843D03*
X021205Y025838D03*
X021205Y025833D03*
X021205Y025828D03*
X021205Y025823D03*
X021210Y025818D03*
X021210Y025813D03*
X021210Y025808D03*
X021210Y025803D03*
X021210Y025798D03*
X021215Y025793D03*
X021215Y025788D03*
X021215Y025783D03*
X021215Y025778D03*
X021215Y025773D03*
X021215Y025768D03*
X021215Y025763D03*
X021215Y025758D03*
X021220Y025753D03*
X021220Y025743D03*
X021220Y025738D03*
X021220Y025733D03*
X021220Y025728D03*
X021220Y025723D03*
X021220Y025718D03*
X021220Y025703D03*
X021225Y025688D03*
X021225Y025683D03*
X021225Y025678D03*
X021225Y025673D03*
X021225Y025663D03*
X021225Y025658D03*
X021225Y025653D03*
X021225Y025648D03*
X021225Y025643D03*
X021225Y025638D03*
X021225Y025633D03*
X021225Y025623D03*
X021225Y025618D03*
X021225Y025613D03*
X021225Y025608D03*
X021225Y025603D03*
X021225Y025598D03*
X021225Y025593D03*
X021225Y025588D03*
X021225Y025583D03*
X021225Y025573D03*
X021225Y025568D03*
X021225Y025563D03*
X021225Y025558D03*
X021220Y025533D03*
X021220Y025523D03*
X021220Y025518D03*
X021220Y025513D03*
X021220Y025508D03*
X021220Y025503D03*
X021220Y025493D03*
X021220Y025488D03*
X021215Y025483D03*
X021215Y025478D03*
X021215Y025473D03*
X021215Y025468D03*
X021215Y025463D03*
X021215Y025458D03*
X021215Y025453D03*
X021215Y025448D03*
X021210Y025443D03*
X021210Y025438D03*
X021210Y025433D03*
X021210Y025428D03*
X021210Y025423D03*
X021205Y025418D03*
X021205Y025413D03*
X021205Y025408D03*
X021205Y025403D03*
X021205Y025398D03*
X021200Y025393D03*
X021200Y025388D03*
X021200Y025383D03*
X021195Y025373D03*
X021190Y025363D03*
X021190Y025358D03*
X021185Y025353D03*
X020815Y025353D03*
X020810Y025358D03*
X020810Y025363D03*
X020805Y025368D03*
X020805Y025373D03*
X020805Y025378D03*
X020800Y025383D03*
X020800Y025388D03*
X020800Y025393D03*
X020795Y025398D03*
X020795Y025403D03*
X020795Y025408D03*
X020795Y025413D03*
X020795Y025418D03*
X020790Y025423D03*
X020790Y025428D03*
X020790Y025433D03*
X020790Y025438D03*
X020790Y025443D03*
X020790Y025448D03*
X020785Y025453D03*
X020785Y025458D03*
X020785Y025463D03*
X020785Y025468D03*
X020785Y025473D03*
X020785Y025478D03*
X020785Y025483D03*
X020780Y025488D03*
X020780Y025498D03*
X020780Y025503D03*
X020780Y025508D03*
X020780Y025518D03*
X020780Y025533D03*
X020780Y025548D03*
X020775Y025553D03*
X020775Y025558D03*
X020775Y025563D03*
X020775Y025568D03*
X020775Y025578D03*
X020775Y025583D03*
X020775Y025588D03*
X020775Y025593D03*
X020775Y025598D03*
X020775Y025603D03*
X020775Y025608D03*
X020775Y025613D03*
X020775Y025618D03*
X020775Y025623D03*
X020775Y025628D03*
X020775Y025633D03*
X020775Y025638D03*
X020775Y025648D03*
X020775Y025653D03*
X020775Y025658D03*
X020775Y025663D03*
X020775Y025668D03*
X020775Y025673D03*
X020775Y025678D03*
X020775Y025683D03*
X020780Y025708D03*
X020780Y025728D03*
X020780Y025733D03*
X020780Y025738D03*
X020780Y025743D03*
X020780Y025748D03*
X020785Y025753D03*
X020785Y025758D03*
X020785Y025763D03*
X020785Y025768D03*
X020785Y025773D03*
X020785Y025778D03*
X020785Y025783D03*
X020785Y025788D03*
X020790Y025793D03*
X020790Y025798D03*
X020790Y025803D03*
X020790Y025808D03*
X020790Y025813D03*
X020790Y025818D03*
X020795Y025823D03*
X020795Y025828D03*
X020795Y025833D03*
X020795Y025838D03*
X020795Y025843D03*
X020800Y025848D03*
X020800Y025853D03*
X020800Y025858D03*
X020805Y025863D03*
X020805Y025868D03*
X020810Y025878D03*
X020810Y025883D03*
X020815Y025888D03*
X020495Y025898D03*
X020495Y025903D03*
X020490Y025908D03*
X020505Y025768D03*
X020090Y025503D03*
X020090Y025498D03*
X020085Y025493D03*
X020085Y025488D03*
X020080Y025478D03*
X020080Y025473D03*
X020085Y025353D03*
X020090Y025348D03*
X020090Y025343D03*
X020095Y025338D03*
X019055Y025228D03*
X019055Y025223D03*
X019055Y025218D03*
X019055Y025213D03*
X018715Y025213D03*
X018715Y025208D03*
X018715Y025218D03*
X018715Y025223D03*
X018890Y025818D03*
D115*
X020272Y026013D03*
X020332Y025213D03*
X021002Y025268D03*
D116*
X021000Y025218D03*
X020370Y025678D03*
X020225Y025588D03*
X021000Y026023D03*
D117*
X020282Y025993D03*
X020332Y025218D03*
D118*
X020332Y025223D03*
X020332Y025228D03*
X020292Y025973D03*
D119*
X020350Y025663D03*
X020245Y025598D03*
X021000Y025228D03*
X021000Y026013D03*
D120*
X021172Y025913D03*
X021177Y025908D03*
X021177Y025903D03*
X021182Y025898D03*
X021217Y025748D03*
X021222Y025668D03*
X021222Y025628D03*
X021222Y025578D03*
X021222Y025553D03*
X021217Y025498D03*
X021197Y025378D03*
X021182Y025348D03*
X021182Y025343D03*
X021177Y025338D03*
X021177Y025333D03*
X020827Y025328D03*
X020822Y025333D03*
X020822Y025338D03*
X020817Y025343D03*
X020817Y025348D03*
X020782Y025493D03*
X020777Y025573D03*
X020777Y025643D03*
X020777Y025688D03*
X020817Y025893D03*
X020817Y025898D03*
X020822Y025903D03*
X020822Y025908D03*
X020827Y025913D03*
X020487Y025913D03*
X020502Y025763D03*
X020497Y025758D03*
X020497Y025753D03*
X020132Y025953D03*
X020092Y025508D03*
X020097Y025333D03*
X020492Y025298D03*
X019052Y025238D03*
X019052Y025233D03*
X018717Y025228D03*
X018887Y025798D03*
X018887Y025803D03*
X018887Y025808D03*
X018887Y025813D03*
D121*
X020340Y025658D03*
X021000Y026008D03*
X021000Y025233D03*
D122*
X020330Y025233D03*
X020295Y025963D03*
X020295Y025968D03*
D123*
X020480Y025923D03*
X020485Y025918D03*
X020495Y025748D03*
X020830Y025918D03*
X021000Y026063D03*
X021165Y025928D03*
X021170Y025918D03*
X021175Y025328D03*
X021170Y025323D03*
X021170Y025318D03*
X020835Y025313D03*
X020830Y025318D03*
X020830Y025323D03*
X020490Y025293D03*
X020105Y025323D03*
X020100Y025328D03*
X020100Y025513D03*
X019055Y025253D03*
X019055Y025248D03*
X019055Y025243D03*
X018715Y025243D03*
X018715Y025238D03*
X018715Y025233D03*
X018715Y025248D03*
X018890Y025793D03*
X018155Y025903D03*
X018155Y025908D03*
X018155Y025913D03*
X018155Y025923D03*
X018155Y025928D03*
X018155Y025933D03*
X018155Y025938D03*
X018155Y025948D03*
X018155Y025953D03*
X018155Y025958D03*
X018155Y025968D03*
X018155Y025973D03*
X018155Y025983D03*
X018155Y025988D03*
X018155Y025993D03*
X018155Y026003D03*
X018155Y026008D03*
X018155Y026013D03*
X018155Y026023D03*
X018155Y026028D03*
X018155Y026033D03*
X018155Y026038D03*
X018155Y026048D03*
X018155Y026053D03*
X018155Y026058D03*
X018155Y026063D03*
X018155Y026073D03*
X018155Y026078D03*
X018155Y026083D03*
X018155Y026088D03*
X018155Y026093D03*
X018155Y026103D03*
X018155Y026108D03*
X018155Y026118D03*
X018155Y026123D03*
X018155Y026128D03*
X018155Y026138D03*
X018155Y026143D03*
X018155Y026148D03*
X018155Y026158D03*
X018155Y026163D03*
X018155Y026168D03*
X018155Y026173D03*
X018155Y026178D03*
X018155Y026188D03*
X018155Y026193D03*
X018155Y026198D03*
X018155Y026208D03*
X018155Y026213D03*
X018155Y026218D03*
X018155Y026223D03*
X018155Y026228D03*
X018155Y026238D03*
X018155Y026243D03*
X018155Y026248D03*
X018155Y026258D03*
X018155Y026263D03*
X018155Y026268D03*
X018155Y026278D03*
X018155Y026283D03*
X018155Y026288D03*
X018155Y026298D03*
X018155Y026303D03*
X018155Y026308D03*
X018155Y026313D03*
X018155Y026323D03*
X018155Y026328D03*
X018155Y026333D03*
X018155Y026338D03*
X018155Y026343D03*
X018155Y026348D03*
X018155Y026358D03*
X018155Y026363D03*
X018155Y026368D03*
X018155Y026378D03*
X018155Y026383D03*
X018155Y026388D03*
X018155Y026393D03*
X018155Y026403D03*
X018155Y026408D03*
X018155Y026413D03*
X018155Y026418D03*
X018155Y026423D03*
X018155Y026428D03*
X018155Y026433D03*
X018155Y026443D03*
X018155Y026448D03*
X018155Y026453D03*
X018155Y026458D03*
X018155Y026463D03*
X018155Y026468D03*
X018155Y026473D03*
D124*
X020325Y025238D03*
D125*
X020295Y025628D03*
X020305Y025638D03*
X021000Y025998D03*
X021000Y025243D03*
D126*
X020322Y025243D03*
D127*
X021000Y025248D03*
X020265Y026028D03*
D128*
X020320Y025248D03*
D129*
X021002Y025253D03*
D130*
X020317Y025253D03*
D131*
X021000Y025258D03*
X021000Y025983D03*
X020265Y026023D03*
D132*
X020315Y025263D03*
X020315Y025258D03*
D133*
X021000Y025263D03*
X021000Y025973D03*
X021000Y025978D03*
D134*
X020312Y025268D03*
D135*
X021000Y025273D03*
X021000Y025968D03*
X020275Y026008D03*
D136*
X020310Y025273D03*
D137*
X021000Y025278D03*
X021000Y025963D03*
X020280Y025998D03*
D138*
X020307Y025278D03*
D139*
X020470Y025723D03*
X020445Y025953D03*
X021000Y026058D03*
X021130Y025283D03*
X020870Y025283D03*
X019050Y025358D03*
X018885Y025693D03*
X018885Y025698D03*
X018885Y025703D03*
X018885Y025708D03*
D140*
X018887Y025688D03*
X018887Y025683D03*
X018717Y025353D03*
X018717Y025348D03*
X018717Y025343D03*
X018717Y025338D03*
X018717Y025333D03*
X020142Y025288D03*
X020467Y025283D03*
X020462Y025718D03*
D141*
X020285Y026063D03*
X020145Y025958D03*
X020115Y025533D03*
X020855Y025293D03*
X020860Y025288D03*
X021150Y025298D03*
X020855Y025948D03*
X019050Y025308D03*
X018715Y025283D03*
X018885Y025743D03*
X018885Y025753D03*
D142*
X018887Y025738D03*
X018887Y025733D03*
X019052Y025328D03*
X019052Y025323D03*
X019052Y025318D03*
X019052Y025313D03*
X018717Y025303D03*
X018717Y025298D03*
X018717Y025293D03*
X018717Y025288D03*
X020122Y025303D03*
X020117Y025538D03*
X020477Y025728D03*
X020452Y025948D03*
X020862Y025953D03*
X021137Y025953D03*
X021147Y025948D03*
X021147Y025293D03*
X021142Y025288D03*
D143*
X021127Y025958D03*
X020872Y025958D03*
X020127Y025543D03*
X020132Y025293D03*
X019052Y025338D03*
X019052Y025348D03*
X019052Y025353D03*
X018717Y025328D03*
X018717Y025323D03*
X018717Y025318D03*
X018717Y025313D03*
X018717Y025308D03*
X018887Y025713D03*
D144*
X018885Y025718D03*
X018885Y025723D03*
X018885Y025728D03*
X019050Y025343D03*
X019050Y025333D03*
X020130Y025298D03*
D145*
X020510Y025308D03*
X020115Y025943D03*
X019105Y025468D03*
X019105Y025463D03*
X019100Y025428D03*
X019100Y025423D03*
X019100Y025418D03*
D146*
X018977Y025483D03*
X018972Y025503D03*
X018787Y025448D03*
X018787Y025443D03*
X018782Y025423D03*
X018782Y025418D03*
X018782Y025413D03*
X018777Y025398D03*
X020107Y025938D03*
X020287Y026068D03*
X020517Y025313D03*
D147*
X020522Y025318D03*
D148*
X020527Y025323D03*
X020097Y025928D03*
D149*
X020092Y025923D03*
X020532Y025328D03*
D150*
X020537Y025333D03*
X020087Y025918D03*
D151*
X020540Y025338D03*
D152*
X020545Y025343D03*
D153*
X020550Y025348D03*
D154*
X020555Y025353D03*
X020070Y025898D03*
D155*
X020432Y025958D03*
X019047Y025393D03*
X019047Y025388D03*
X018887Y025663D03*
X018717Y025368D03*
X018717Y025363D03*
X018717Y025358D03*
D156*
X018715Y025388D03*
X018715Y025393D03*
X021000Y026053D03*
D157*
X019150Y025813D03*
X019150Y025808D03*
X019145Y025773D03*
X019145Y025768D03*
X019145Y025763D03*
X019145Y025758D03*
X019140Y025738D03*
X019140Y025733D03*
X019140Y025728D03*
X019140Y025723D03*
X019140Y025718D03*
X019140Y025713D03*
X019135Y025698D03*
X019135Y025693D03*
X019135Y025688D03*
X019135Y025683D03*
X019135Y025678D03*
X019135Y025673D03*
X019135Y025668D03*
X019130Y025658D03*
X019130Y025653D03*
X019130Y025648D03*
X019130Y025638D03*
X019125Y025623D03*
X019125Y025618D03*
X019125Y025613D03*
X019125Y025608D03*
X019120Y025593D03*
X019120Y025588D03*
X019120Y025583D03*
X019115Y025553D03*
X019115Y025548D03*
X018655Y025463D03*
X018655Y025458D03*
X018655Y025453D03*
X018660Y025438D03*
X018660Y025433D03*
X018660Y025428D03*
X018665Y025408D03*
X018650Y025478D03*
X018650Y025483D03*
X018650Y025488D03*
X018650Y025493D03*
X018645Y025503D03*
X018645Y025508D03*
X018645Y025513D03*
X018645Y025518D03*
X018640Y025533D03*
X018640Y025538D03*
X018625Y025593D03*
X018620Y025618D03*
X018620Y025623D03*
X018615Y025643D03*
X018615Y025648D03*
X018610Y025668D03*
X018610Y025673D03*
X018610Y025678D03*
X018605Y025698D03*
X018605Y025703D03*
X018585Y025783D03*
X018580Y025813D03*
X018575Y025838D03*
X018570Y025863D03*
D158*
X018832Y025653D03*
X018832Y025648D03*
X018832Y025643D03*
X018832Y025638D03*
X018832Y025633D03*
X018827Y025623D03*
X018827Y025608D03*
X018812Y025563D03*
X018812Y025558D03*
X018807Y025543D03*
X018807Y025538D03*
X018807Y025533D03*
X018802Y025513D03*
X018802Y025508D03*
X018797Y025488D03*
X018797Y025483D03*
X018792Y025463D03*
X018792Y025458D03*
X018967Y025513D03*
X018962Y025543D03*
X018962Y025548D03*
X018957Y025563D03*
X018957Y025568D03*
X018957Y025573D03*
X018957Y025578D03*
X018952Y025588D03*
X018952Y025593D03*
X018952Y025598D03*
X018952Y025603D03*
X018947Y025613D03*
X018947Y025618D03*
X018947Y025623D03*
X018947Y025628D03*
X018947Y025633D03*
X018942Y025638D03*
X018942Y025643D03*
X018942Y025648D03*
X018837Y025658D03*
X018982Y025463D03*
X018987Y025438D03*
D159*
X020155Y025558D03*
X020440Y025703D03*
D160*
X020162Y025563D03*
D161*
X020187Y025573D03*
D162*
X020202Y025578D03*
X020277Y026048D03*
D163*
X020212Y025583D03*
D164*
X019592Y025593D03*
X019592Y025598D03*
X019592Y025603D03*
X019592Y025608D03*
X019592Y025613D03*
X019592Y025618D03*
X019592Y025623D03*
X019592Y025628D03*
X019592Y025633D03*
X019592Y025638D03*
X019592Y025643D03*
X019592Y025648D03*
X019592Y025653D03*
X019592Y025658D03*
X019592Y025663D03*
X019592Y025668D03*
X019592Y025673D03*
X019592Y025678D03*
X019592Y025683D03*
X019592Y025688D03*
X019592Y025693D03*
X019592Y025698D03*
X019592Y025703D03*
D165*
X020252Y025603D03*
D166*
X020257Y025608D03*
X020267Y025613D03*
X020267Y026033D03*
D167*
X020312Y025643D03*
X020287Y025623D03*
X020277Y025618D03*
D168*
X020302Y025633D03*
D169*
X020357Y025668D03*
X020362Y025673D03*
D170*
X020400Y025688D03*
X021000Y026033D03*
D171*
X020415Y025693D03*
D172*
X020072Y025903D03*
D173*
X020077Y025908D03*
D174*
X020082Y025913D03*
D175*
X020105Y025933D03*
X021000Y026068D03*
D176*
X020290Y025983D03*
X020290Y025978D03*
D177*
X021000Y025988D03*
D178*
X020285Y025988D03*
D179*
X020277Y026003D03*
D180*
X020267Y026018D03*
D181*
X020272Y026038D03*
D182*
X021000Y026048D03*
D183*
X020277Y026053D03*
D184*
X020282Y026058D03*
D185*
X020197Y026318D03*
X020197Y026323D03*
X020197Y026328D03*
X020197Y026333D03*
X020197Y026338D03*
X020197Y026343D03*
X020197Y026348D03*
X020197Y026353D03*
X020197Y026358D03*
X020197Y026363D03*
X020197Y026368D03*
X020197Y026373D03*
X020197Y026378D03*
X020197Y026383D03*
X020197Y026388D03*
X020197Y026393D03*
X020197Y026398D03*
X020197Y026403D03*
X020197Y026408D03*
X020197Y026413D03*
X020197Y026418D03*
X020197Y026423D03*
X020197Y026428D03*
X020197Y026433D03*
X020197Y026438D03*
X020197Y026443D03*
X020197Y026448D03*
X020197Y026453D03*
X020197Y026458D03*
X020197Y026463D03*
X020197Y026468D03*
X020197Y026473D03*
M02*
