G75*
%MOIN*%
%OFA0B0*%
%FSLAX24Y24*%
%IPPOS*%
%LPD*%
%AMOC8*
5,1,8,0,0,1.08239X$1,22.5*
%
%ADD10C,0.1340*%
%ADD11C,0.0650*%
%ADD12C,0.0660*%
%ADD13C,0.0653*%
%ADD14OC8,0.0572*%
%ADD15C,0.0572*%
%ADD16C,0.0836*%
%ADD17R,0.0836X0.0836*%
%ADD18OC8,0.0693*%
%ADD19C,0.0693*%
%ADD20C,0.0566*%
%ADD21C,0.0715*%
%ADD22OC8,0.1080*%
%ADD23C,0.0110*%
%ADD24C,0.0316*%
%ADD25C,0.0770*%
D10*
X009260Y018393D03*
X015260Y038393D03*
X026260Y038393D03*
X028260Y017893D03*
D11*
X020735Y027868D03*
X020735Y029393D03*
X021910Y031693D03*
X021910Y034693D03*
X021910Y035693D03*
X021910Y038693D03*
X017960Y038693D03*
X017960Y035693D03*
X017960Y034693D03*
X017960Y031693D03*
X017735Y029393D03*
X017735Y027868D03*
X025310Y029793D03*
X025310Y032793D03*
D12*
X026220Y032723D02*
X026220Y032423D01*
X028000Y032423D02*
X028000Y032723D01*
X028000Y030163D02*
X028000Y029863D01*
X026220Y029863D02*
X026220Y030163D01*
X013635Y016343D02*
X013635Y016043D01*
X011635Y016043D02*
X011635Y016343D01*
X013010Y034393D02*
X013310Y034393D01*
X013310Y035393D02*
X013010Y035393D01*
X013010Y036393D02*
X013310Y036393D01*
X013310Y037393D02*
X013010Y037393D01*
D13*
X024371Y014892D02*
X024371Y014595D01*
X025748Y014595D02*
X025748Y014892D01*
X027121Y014892D02*
X027121Y014595D01*
X028498Y014595D02*
X028498Y014892D01*
X015023Y013967D02*
X015023Y013670D01*
X013646Y013670D02*
X013646Y013967D01*
D14*
X024060Y016543D03*
X026060Y016543D03*
X026810Y016543D03*
X028810Y016543D03*
X027860Y035193D03*
X027860Y035943D03*
X027860Y036693D03*
X027860Y037443D03*
X009685Y037443D03*
X009685Y036693D03*
X009685Y035943D03*
X009685Y035193D03*
D15*
X016630Y029393D02*
X016890Y029393D01*
X016890Y028393D02*
X016630Y028393D01*
X016630Y027393D02*
X016890Y027393D01*
X016890Y026393D02*
X016630Y026393D01*
X016630Y025393D02*
X016890Y025393D01*
X016890Y024393D02*
X016630Y024393D01*
X016630Y023393D02*
X016890Y023393D01*
X016890Y022393D02*
X016630Y022393D01*
X016630Y021393D02*
X016890Y021393D01*
X016890Y020393D02*
X016630Y020393D01*
X016630Y019393D02*
X016890Y019393D01*
X016890Y018393D02*
X016630Y018393D01*
X016630Y017393D02*
X016890Y017393D01*
X016890Y016393D02*
X016630Y016393D01*
X016630Y015393D02*
X016890Y015393D01*
X014290Y018893D02*
X014030Y018893D01*
X013290Y018893D02*
X013030Y018893D01*
X012290Y018893D02*
X012030Y018893D01*
X012030Y019893D02*
X012290Y019893D01*
X013030Y019893D02*
X013290Y019893D01*
X014030Y019893D02*
X014290Y019893D01*
X014290Y020893D02*
X014030Y020893D01*
X013290Y020893D02*
X013030Y020893D01*
X012290Y020893D02*
X012030Y020893D01*
X012030Y021893D02*
X012290Y021893D01*
X013030Y021893D02*
X013290Y021893D01*
X014030Y021893D02*
X014290Y021893D01*
X014290Y022893D02*
X014030Y022893D01*
X013290Y022893D02*
X013030Y022893D01*
X012290Y022893D02*
X012030Y022893D01*
X012030Y023893D02*
X012290Y023893D01*
X013030Y023893D02*
X013290Y023893D01*
X014030Y023893D02*
X014290Y023893D01*
X019180Y032293D02*
X019440Y032293D01*
X019440Y033293D02*
X019180Y033293D01*
X019180Y034293D02*
X019440Y034293D01*
X019440Y036143D02*
X019180Y036143D01*
X019180Y037143D02*
X019440Y037143D01*
X019440Y038143D02*
X019180Y038143D01*
X022630Y029393D02*
X022890Y029393D01*
X022890Y028393D02*
X022630Y028393D01*
X022630Y027393D02*
X022890Y027393D01*
X022890Y026393D02*
X022630Y026393D01*
X022630Y025393D02*
X022890Y025393D01*
X022890Y024393D02*
X022630Y024393D01*
X022630Y023393D02*
X022890Y023393D01*
X022890Y022393D02*
X022630Y022393D01*
X022630Y021393D02*
X022890Y021393D01*
X022890Y020393D02*
X022630Y020393D01*
X022630Y019393D02*
X022890Y019393D01*
X022890Y018393D02*
X022630Y018393D01*
X022630Y017393D02*
X022890Y017393D01*
X022890Y016393D02*
X022630Y016393D01*
X022630Y015393D02*
X022890Y015393D01*
X025430Y020343D02*
X025690Y020343D01*
X026430Y020343D02*
X026690Y020343D01*
X027430Y020343D02*
X027690Y020343D01*
X027690Y021343D02*
X027430Y021343D01*
X026690Y021343D02*
X026430Y021343D01*
X025690Y021343D02*
X025430Y021343D01*
X025430Y022343D02*
X025690Y022343D01*
X026430Y022343D02*
X026690Y022343D01*
X027430Y022343D02*
X027690Y022343D01*
X027690Y023343D02*
X027430Y023343D01*
X026690Y023343D02*
X026430Y023343D01*
X025690Y023343D02*
X025430Y023343D01*
X025430Y024343D02*
X025690Y024343D01*
X026430Y024343D02*
X026690Y024343D01*
X027430Y024343D02*
X027690Y024343D01*
X027690Y025343D02*
X027430Y025343D01*
X026690Y025343D02*
X026430Y025343D01*
X025690Y025343D02*
X025430Y025343D01*
X025430Y026343D02*
X025690Y026343D01*
X026430Y026343D02*
X026690Y026343D01*
X027430Y026343D02*
X027690Y026343D01*
D16*
X022910Y032693D03*
X022910Y033693D03*
X022910Y034693D03*
X022910Y035693D03*
X022910Y036693D03*
X022910Y037693D03*
X022910Y038693D03*
X016810Y038693D03*
X016810Y037693D03*
X016810Y036693D03*
X016810Y035693D03*
X016810Y034693D03*
X016810Y033693D03*
X016810Y032693D03*
X016810Y031693D03*
D17*
X022910Y031693D03*
D18*
X019435Y021943D03*
D19*
X020435Y021943D03*
D20*
X020617Y013322D02*
X020617Y013065D01*
X019785Y013065D02*
X019785Y013322D01*
X018952Y013322D02*
X018952Y013065D01*
D21*
X018111Y013031D02*
X018111Y013356D01*
X021458Y013356D02*
X021458Y013031D01*
D22*
X019760Y016143D03*
X019760Y019143D03*
D23*
X011130Y016663D02*
X010690Y016663D01*
X011130Y016663D02*
X011130Y015723D01*
X010690Y015723D01*
X010690Y016663D01*
X010690Y015832D02*
X011130Y015832D01*
X011130Y015941D02*
X010690Y015941D01*
X010690Y016050D02*
X011130Y016050D01*
X011130Y016159D02*
X010690Y016159D01*
X010690Y016268D02*
X011130Y016268D01*
X011130Y016377D02*
X010690Y016377D01*
X010690Y016486D02*
X011130Y016486D01*
X011130Y016595D02*
X010690Y016595D01*
X010130Y016663D02*
X009690Y016663D01*
X010130Y016663D02*
X010130Y015723D01*
X009690Y015723D01*
X009690Y016663D01*
X009690Y015832D02*
X010130Y015832D01*
X010130Y015941D02*
X009690Y015941D01*
X009690Y016050D02*
X010130Y016050D01*
X010130Y016159D02*
X009690Y016159D01*
X009690Y016268D02*
X010130Y016268D01*
X010130Y016377D02*
X009690Y016377D01*
X009690Y016486D02*
X010130Y016486D01*
X010130Y016595D02*
X009690Y016595D01*
D24*
X009230Y012893D03*
X009230Y013093D03*
X009580Y014053D03*
X009680Y014053D03*
X011540Y014053D03*
X011640Y014053D03*
X011990Y013093D03*
X011990Y012893D03*
D25*
X011135Y017768D03*
X014135Y017768D03*
M02*
