%
M48
M72
T01C0.0197
T02C0.0236
T03C0.0276
T04C0.0315
T05C0.0320
T06C0.0394
T07C0.0400
T08C0.0433
T09C0.1260
%
T01
X8985Y15968
X8985Y17093
X9910Y16993
X9010Y21093
X11735Y25093
X14210Y25393
X14210Y26193
X14210Y26918
X16810Y30068
X17385Y31193
X16085Y33818
X14210Y32818
X14210Y31893
X14210Y31068
X19685Y28618
X19710Y26868
X20835Y30343
X21910Y30843
X25310Y35943
X24535Y36793
X21235Y38868
X18610Y21393
X25060Y17268
X26460Y14793
X23010Y13093
X16560Y13193
T02
X12635Y15893
X12635Y16393
X12635Y16893
X12635Y17768
T03
X9230Y12893
X9230Y13093
X9580Y14053
X9680Y14053
X11540Y14053
X11640Y14053
X11990Y13093
X11990Y12893
X10185Y28918
X10185Y29418
X10185Y29918
X9610Y29643
X9110Y29643
X10185Y30918
X10185Y31418
X10185Y31918
X10185Y32418
X10185Y32918
X10185Y33418
X10185Y33918
X10185Y34418
X9685Y34493
X9685Y33993
X9185Y33993
X9185Y34493
X10685Y33993
X11785Y32368
X12460Y29468
T04
X18952Y13193
X19785Y13193
X20617Y13193
T05
X22760Y15393
X22760Y16393
X22760Y17393
X22760Y18393
X22760Y19393
X22760Y20393
X22760Y21393
X22760Y22393
X22760Y23393
X22760Y24393
X22760Y25393
X22760Y26393
X22760Y27393
X22760Y28393
X22760Y29393
X20735Y29393
X20735Y27868
X17735Y27868
X16760Y27393
X16760Y28393
X16760Y29393
X17735Y29393
X17960Y31693
X19310Y32293
X19310Y33293
X19310Y34293
X17960Y34693
X17960Y35693
X19310Y36143
X19310Y37143
X19310Y38143
X17960Y38693
X21910Y38693
X21910Y35693
X21910Y34693
X21910Y31693
X25310Y32793
X25310Y29793
X25560Y26343
X26560Y26343
X26560Y25343
X26560Y24343
X26560Y23343
X26560Y22343
X26560Y21343
X26560Y20343
X25560Y20343
X25560Y21343
X25560Y22343
X25560Y23343
X25560Y24343
X25560Y25343
X27560Y25343
X27560Y24343
X27560Y23343
X27560Y22343
X27560Y21343
X27560Y20343
X26810Y16543
X26060Y16543
X24060Y16543
X20435Y21943
X19435Y21943
X16760Y22393
X16760Y21393
X16760Y20393
X16760Y19393
X16760Y18393
X16760Y17393
X16760Y16393
X16760Y15393
X14160Y18893
X14160Y19893
X14160Y20893
X14160Y21893
X14160Y22893
X14160Y23893
X13160Y23893
X13160Y22893
X13160Y21893
X13160Y20893
X13160Y19893
X13160Y18893
X12160Y18893
X12160Y19893
X12160Y20893
X12160Y21893
X12160Y22893
X12160Y23893
X16760Y23393
X16760Y24393
X16760Y25393
X16760Y26393
X9685Y35193
X9685Y35943
X9685Y36693
X9685Y37443
X27560Y26343
X27860Y35193
X27860Y35943
X27860Y36693
X27860Y37443
X28810Y16543
T06
X28498Y14743
X27121Y14743
X25748Y14743
X24371Y14743
X15023Y13818
X13646Y13818
X14135Y17768
X11135Y17768
X16810Y31693
X16810Y32693
X16810Y33693
X16810Y34693
X16810Y35693
X16810Y36693
X16810Y37693
X16810Y38693
X22910Y38693
X22910Y37693
X22910Y36693
X22910Y35693
X22910Y34693
X22910Y33693
X22910Y32693
X22910Y31693
T07
X26220Y32573
X28000Y32573
X28000Y30013
X26220Y30013
X19760Y19143
X19760Y16143
X13635Y16193
X11635Y16193
X13160Y34393
X13160Y35393
X13160Y36393
X13160Y37393
T08
X18111Y13193
X21458Y13193
T09
X28260Y17893
X26260Y38393
X15260Y38393
X9260Y18393
M30
